# MagicaVoxel @ Ephtracy

# group
o 

# material
mtllib 2P_Sink.mtl
usemtl palette

# normals
vn -1 0 0
vn 1 0 0
vn 0 0 1
vn 0 0 -1
vn 0 -1 0
vn 0 1 0

# texcoords
vt 0.00195312 0.5
vt 0.0136719 0.5
vt 0.0175781 0.5
vt 0.0214844 0.5
vt 0.0332031 0.5
vt 0.0371094 0.5
vt 0.0449219 0.5
vt 0.0488281 0.5

# verts
v -2.5 1.5 1.4
v -2.5 1.5 -1.4
v -2.5 1.8 1.4
v -2.5 1.8 -1.4
v -2.4 1.5 1.5
v -2.4 1.5 1.4
v -2.4 1.5 -1.4
v -2.4 1.5 -1.5
v -2.4 1.8 1.5
v -2.4 1.8 1.4
v -2.4 1.8 -1.4
v -2.4 1.8 -1.5
v -2.3 0 1.3
v -2.3 0 -1.3
v -2.3 0.2 1.3
v -2.3 0.2 -1.3
v -2.3 1.5 1.3
v -2.3 1.5 -1.3
v -2.3 1.8 0.6
v -2.3 1.8 -0.6
v -2.3 1.9 0.6
v -2.3 1.9 -0.6
v -0.9 1.8 1
v -0.9 1.8 -1
v -0.9 1.9 1
v -0.9 1.9 -1
v -0.7 1.8 0.9
v -0.7 1.8 -0.9
v -0.7 1.9 0.9
v -0.7 1.9 -0.9
v -0.5 1.8 0.9
v -0.5 1.8 -0.9
v -0.5 1.9 0.9
v -0.5 1.9 -0.9
v -0.3 1.8 0.9
v -0.3 1.8 -0.9
v -0.3 1.9 0.9
v -0.3 1.9 -0.9
v -0.0999999 1.8 0.9
v -0.0999999 1.8 -0.9
v -0.0999999 1.9 0.9
v -0.0999999 1.9 -0.9
v 0.3 1.8 1.3
v 0.3 1.8 1.1
v 0.3 1.9 1.3
v 0.3 1.9 1.1
v 0.3 2 1.3
v 0.3 2 1.2
v 0.3 2.1 1.2
v 0.3 2.1 1.1
v 0.8 1.8 1.3
v 0.8 1.8 1.1
v 0.8 1.9 1.3
v 0.8 1.9 1.1
v 0.8 2.2 0.8
v 0.8 2.2 0.6
v 0.8 2.5 1.1
v 0.8 2.5 1
v 0.8 2.5 0.9
v 0.8 2.5 0.8
v 0.8 2.6 1.3
v 0.8 2.6 1.2
v 0.8 2.6 1
v 0.8 2.6 0.9
v 0.8 2.6 0.7
v 0.8 2.6 0.6
v 0.8 2.7 1.2
v 0.8 2.7 1.1
v 0.8 2.7 0.8
v 0.8 2.7 0.7
v 0.8 2.8 1.1
v 0.8 2.8 0.8
v 1.2 2 1.2
v 1.2 2 1.1
v 1.2 2.1 1.3
v 1.2 2.1 1.2
v 1.2 2.2 1.3
v 1.2 2.2 1.1
v 2.1 1 0.9
v 2.1 1 -0.9
v 2.1 1.7 0.9
v 2.1 1.7 -0.9
v 2.1 1.8 0.9
v 2.1 1.8 -0.9
v -1.1 1.8 0.6
v -1.1 1.8 -0.6
v -1.1 1.9 0.6
v -1.1 1.9 -0.6
v -0.8 1 0.9
v -0.8 1 -0.9
v -0.8 1.7 0.9
v -0.8 1.7 -0.9
v -0.8 1.8 0.9
v -0.8 1.8 -0.9
v -0.8 1.9 0.9
v -0.8 1.9 -0.9
v -0.6 1.8 0.9
v -0.6 1.8 -0.9
v -0.6 1.9 0.9
v -0.6 1.9 -0.9
v -0.4 1.8 0.9
v -0.4 1.8 -0.9
v -0.4 1.9 0.9
v -0.4 1.9 -0.9
v -0.2 1.8 0.9
v -0.2 1.8 -0.9
v -0.2 1.9 0.9
v -0.2 1.9 -0.9
v 2.38419e-07 1.8 1
v 2.38419e-07 1.8 0.9
v 2.38419e-07 1.8 -0.9
v 2.38419e-07 1.8 -1
v 2.38419e-07 1.9 1
v 2.38419e-07 1.9 -1
v 0.4 2 1.2
v 0.4 2 1.1
v 0.4 2.1 1.2
v 0.4 2.1 1.1
v 0.5 1.8 1.3
v 0.5 1.8 1.1
v 0.5 1.9 1.3
v 0.5 1.9 1.1
v 0.5 2 1.3
v 0.5 2 1.1
v 1 1.8 1.3
v 1 1.8 1.1
v 1 1.9 1.3
v 1 1.9 1.1
v 1 2 1.3
v 1 2 1.2
v 1 2.1 1.3
v 1 2.1 1.2
v 1 2.2 0.8
v 1 2.2 0.6
v 1 2.5 1.1
v 1 2.5 1
v 1 2.5 0.9
v 1 2.5 0.8
v 1 2.6 1.3
v 1 2.6 1.2
v 1 2.6 1
v 1 2.6 0.9
v 1 2.6 0.7
v 1 2.6 0.6
v 1 2.7 1.2
v 1 2.7 1.1
v 1 2.7 0.8
v 1 2.7 0.7
v 1 2.8 1.1
v 1 2.8 0.8
v 1.3 2 1.3
v 1.3 2 1.1
v 1.3 2.2 1.3
v 1.3 2.2 1.1
v 2.3 0 1.3
v 2.3 0 -1.3
v 2.3 0.2 1.3
v 2.3 0.2 -1.3
v 2.3 1.5 1.3
v 2.3 1.5 -1.3
v 2.4 1.5 1.5
v 2.4 1.5 1.4
v 2.4 1.5 -1.4
v 2.4 1.5 -1.5
v 2.4 1.8 1.5
v 2.4 1.8 1.4
v 2.4 1.8 -1.4
v 2.4 1.8 -1.5
v 2.5 1.5 1.4
v 2.5 1.5 -1.4
v 2.5 1.8 1.4
v 2.5 1.8 -1.4
v -2.4 1.5 1.5
v -2.4 1.8 1.5
v 2.4 1.5 1.5
v 2.4 1.8 1.5
v -2.5 1.5 1.4
v -2.5 1.8 1.4
v -2.4 1.5 1.4
v -2.4 1.8 1.4
v 2.4 1.5 1.4
v 2.4 1.8 1.4
v 2.5 1.5 1.4
v 2.5 1.8 1.4
v -2.3 0 1.3
v -2.3 0.2 1.3
v -2.3 1.5 1.3
v 0.3 1.8 1.3
v 0.3 1.9 1.3
v 0.3 2 1.3
v 0.5 1.8 1.3
v 0.5 1.9 1.3
v 0.5 2 1.3
v 0.8 1.8 1.3
v 0.8 1.9 1.3
v 0.8 2.6 1.3
v 1 1.8 1.3
v 1 1.9 1.3
v 1 2 1.3
v 1 2.1 1.3
v 1 2.6 1.3
v 1.2 2.1 1.3
v 1.2 2.2 1.3
v 1.3 2 1.3
v 1.3 2.2 1.3
v 2.3 0 1.3
v 2.3 0.2 1.3
v 2.3 1.5 1.3
v 0.3 2 1.2
v 0.3 2.1 1.2
v 0.4 2 1.2
v 0.4 2.1 1.2
v 0.8 2.6 1.2
v 0.8 2.7 1.2
v 1 2.6 1.2
v 1 2.7 1.2
v 0.8 2.7 1.1
v 0.8 2.8 1.1
v 1 2.7 1.1
v 1 2.8 1.1
v -0.9 1.8 1
v -0.9 1.9 1
v 2.38419e-07 1.8 1
v 2.38419e-07 1.9 1
v 0.8 2.5 0.9
v 0.8 2.6 0.9
v 1 2.5 0.9
v 1 2.6 0.9
v 0.8 2.2 0.8
v 0.8 2.5 0.8
v 1 2.2 0.8
v 1 2.5 0.8
v -2.3 1.8 0.6
v -2.3 1.9 0.6
v -1.1 1.8 0.6
v -1.1 1.9 0.6
v -0.8 1 -0.9
v -0.8 1.7 -0.9
v -0.8 1.8 -0.9
v -0.8 1.9 -0.9
v -0.7 1.8 -0.9
v -0.7 1.9 -0.9
v -0.6 1.8 -0.9
v -0.6 1.9 -0.9
v -0.5 1.8 -0.9
v -0.5 1.9 -0.9
v -0.4 1.8 -0.9
v -0.4 1.9 -0.9
v -0.3 1.8 -0.9
v -0.3 1.9 -0.9
v -0.2 1.8 -0.9
v -0.2 1.9 -0.9
v -0.0999999 1.8 -0.9
v -0.0999999 1.9 -0.9
v 2.38419e-07 1.8 -0.9
v 2.1 1 -0.9
v 2.1 1.7 -0.9
v 2.1 1.8 -0.9
v 1 2 1.2
v 1 2.1 1.2
v 1.2 2 1.2
v 1.2 2.1 1.2
v 0.3 1.8 1.1
v 0.3 1.9 1.1
v 0.3 2.1 1.1
v 0.4 2 1.1
v 0.4 2.1 1.1
v 0.5 1.8 1.1
v 0.5 1.9 1.1
v 0.5 2 1.1
v 0.8 1.8 1.1
v 0.8 1.9 1.1
v 0.8 2.5 1.1
v 1 1.8 1.1
v 1 1.9 1.1
v 1 2.5 1.1
v 1.2 2 1.1
v 1.2 2.2 1.1
v 1.3 2 1.1
v 1.3 2.2 1.1
v 0.8 2.5 1
v 0.8 2.6 1
v 1 2.5 1
v 1 2.6 1
v -0.8 1 0.9
v -0.8 1.7 0.9
v -0.8 1.8 0.9
v -0.8 1.9 0.9
v -0.7 1.8 0.9
v -0.7 1.9 0.9
v -0.6 1.8 0.9
v -0.6 1.9 0.9
v -0.5 1.8 0.9
v -0.5 1.9 0.9
v -0.4 1.8 0.9
v -0.4 1.9 0.9
v -0.3 1.8 0.9
v -0.3 1.9 0.9
v -0.2 1.8 0.9
v -0.2 1.9 0.9
v -0.0999999 1.8 0.9
v -0.0999999 1.9 0.9
v 2.38419e-07 1.8 0.9
v 2.1 1 0.9
v 2.1 1.7 0.9
v 2.1 1.8 0.9
v 0.8 2.7 0.8
v 0.8 2.8 0.8
v 1 2.7 0.8
v 1 2.8 0.8
v 0.8 2.6 0.7
v 0.8 2.7 0.7
v 1 2.6 0.7
v 1 2.7 0.7
v 0.8 2.2 0.6
v 0.8 2.6 0.6
v 1 2.2 0.6
v 1 2.6 0.6
v -2.3 1.8 -0.6
v -2.3 1.9 -0.6
v -1.1 1.8 -0.6
v -1.1 1.9 -0.6
v -0.9 1.8 -1
v -0.9 1.9 -1
v 2.38419e-07 1.8 -1
v 2.38419e-07 1.9 -1
v -2.3 0 -1.3
v -2.3 0.2 -1.3
v -2.3 1.5 -1.3
v 2.3 0 -1.3
v 2.3 0.2 -1.3
v 2.3 1.5 -1.3
v -2.5 1.5 -1.4
v -2.5 1.8 -1.4
v -2.4 1.5 -1.4
v -2.4 1.8 -1.4
v 2.4 1.5 -1.4
v 2.4 1.8 -1.4
v 2.5 1.5 -1.4
v 2.5 1.8 -1.4
v -2.4 1.5 -1.5
v -2.4 1.8 -1.5
v 2.4 1.5 -1.5
v 2.4 1.8 -1.5
v -2.3 0 1.3
v 2.3 0 1.3
v -2.3 0 -1.3
v 2.3 0 -1.3
v -2.4 1.5 1.5
v 2.4 1.5 1.5
v -2.5 1.5 1.4
v -2.4 1.5 1.4
v 2.4 1.5 1.4
v 2.5 1.5 1.4
v -2.3 1.5 1.3
v 2.3 1.5 1.3
v -2.3 1.5 -1.3
v 2.3 1.5 -1.3
v -2.5 1.5 -1.4
v -2.4 1.5 -1.4
v 2.4 1.5 -1.4
v 2.5 1.5 -1.4
v -2.4 1.5 -1.5
v 2.4 1.5 -1.5
v -0.7 1.8 0.9
v -0.6 1.8 0.9
v -0.5 1.8 0.9
v -0.4 1.8 0.9
v -0.3 1.8 0.9
v -0.2 1.8 0.9
v -0.0999999 1.8 0.9
v 2.38419e-07 1.8 0.9
v -0.7 1.8 -0.9
v -0.6 1.8 -0.9
v -0.5 1.8 -0.9
v -0.4 1.8 -0.9
v -0.3 1.8 -0.9
v -0.2 1.8 -0.9
v -0.0999999 1.8 -0.9
v 2.38419e-07 1.8 -0.9
v 1 2 1.3
v 1.3 2 1.3
v 1 2 1.2
v 1.2 2 1.2
v 1.2 2 1.1
v 1.3 2 1.1
v 0.8 2.2 0.8
v 1 2.2 0.8
v 0.8 2.2 0.6
v 1 2.2 0.6
v 0.8 2.5 1.1
v 1 2.5 1.1
v 0.8 2.5 1
v 1 2.5 1
v 0.8 2.5 0.9
v 1 2.5 0.9
v 0.8 2.5 0.8
v 1 2.5 0.8
v 0.8 2.6 1
v 1 2.6 1
v 0.8 2.6 0.9
v 1 2.6 0.9
v -0.8 1 0.9
v 2.1 1 0.9
v -0.8 1 -0.9
v 2.1 1 -0.9
v -2.4 1.8 1.5
v 2.4 1.8 1.5
v -2.5 1.8 1.4
v -2.4 1.8 1.4
v 2.4 1.8 1.4
v 2.5 1.8 1.4
v 0.3 1.8 1.3
v 0.5 1.8 1.3
v 0.8 1.8 1.3
v 1 1.8 1.3
v 0.3 1.8 1.1
v 0.5 1.8 1.1
v 0.8 1.8 1.1
v 1 1.8 1.1
v -0.9 1.8 1
v 2.38419e-07 1.8 1
v 2.2 1.8 1
v 2.38419e-07 1.8 0.9
v 2.1 1.8 0.9
v -2.3 1.8 0.6
v -1.1 1.8 0.6
v -2.3 1.8 -0.6
v -1.1 1.8 -0.6
v 2.38419e-07 1.8 -0.9
v 2.1 1.8 -0.9
v -0.9 1.8 -1
v 2.38419e-07 1.8 -1
v 2.2 1.8 -1
v -2.5 1.8 -1.4
v -2.4 1.8 -1.4
v 2.4 1.8 -1.4
v 2.5 1.8 -1.4
v -2.4 1.8 -1.5
v 2.4 1.8 -1.5
v -0.9 1.9 1
v 2.38419e-07 1.9 1
v -0.8 1.9 0.9
v -0.7 1.9 0.9
v -0.6 1.9 0.9
v -0.5 1.9 0.9
v -0.4 1.9 0.9
v -0.3 1.9 0.9
v -0.2 1.9 0.9
v -0.0999999 1.9 0.9
v -2.3 1.9 0.6
v -1.1 1.9 0.6
v -2.2 1.9 0.5
v -1.2 1.9 0.5
v -1.9 1.9 0.3
v -1.2 1.9 0.3
v -1.9 1.9 0.2
v -1.2 1.9 0.2
v -2.2 1.9 0
v -1.4 1.9 0
v -2.2 1.9 -0.1
v -1.4 1.9 -0.1
v -1.6 1.9 -0.2
v -1.2 1.9 -0.2
v -2.2 1.9 -0.3
v -1.9 1.9 -0.3
v -1.6 1.9 -0.3
v -1.2 1.9 -0.3
v -2.2 1.9 -0.4
v -1.9 1.9 -0.4
v -2.2 1.9 -0.5
v -1.2 1.9 -0.5
v -2.3 1.9 -0.6
v -1.1 1.9 -0.6
v -0.8 1.9 -0.9
v -0.7 1.9 -0.9
v -0.6 1.9 -0.9
v -0.5 1.9 -0.9
v -0.4 1.9 -0.9
v -0.3 1.9 -0.9
v -0.2 1.9 -0.9
v -0.0999999 1.9 -0.9
v -0.9 1.9 -1
v 2.38419e-07 1.9 -1
v 0.3 2 1.3
v 0.5 2 1.3
v 0.3 2 1.2
v 0.4 2 1.2
v 0.4 2 1.1
v 0.5 2 1.1
v 1 2.1 1.3
v 1.2 2.1 1.3
v 0.3 2.1 1.2
v 0.4 2.1 1.2
v 1 2.1 1.2
v 1.2 2.1 1.2
v 0.3 2.1 1.1
v 0.4 2.1 1.1
v 1.2 2.2 1.3
v 1.3 2.2 1.3
v 1.2 2.2 1.1
v 1.3 2.2 1.1
v 0.8 2.6 1.3
v 1 2.6 1.3
v 0.8 2.6 1.2
v 1 2.6 1.2
v 0.8 2.6 0.7
v 1 2.6 0.7
v 0.8 2.6 0.6
v 1 2.6 0.6
v 0.8 2.7 1.2
v 1 2.7 1.2
v 0.8 2.7 1.1
v 1 2.7 1.1
v 0.8 2.7 0.8
v 1 2.7 0.8
v 0.8 2.7 0.7
v 1 2.7 0.7
v 0.8 2.8 1.1
v 1 2.8 1.1
v 0.8 2.8 0.8
v 1 2.8 0.8

# faces
f 3/3/1 2/3/1 1/3/1
f 4/3/1 2/3/1 3/3/1
f 9/3/1 6/3/1 5/3/1
f 10/3/1 6/3/1 9/3/1
f 11/3/1 8/3/1 7/3/1
f 12/3/1 8/3/1 11/3/1
f 15/5/1 14/5/1 13/5/1
f 16/5/1 14/5/1 15/5/1
f 17/1/1 16/1/1 15/1/1
f 18/1/1 16/1/1 17/1/1
f 21/7/1 20/7/1 19/7/1
f 22/7/1 20/7/1 21/7/1
f 25/8/1 24/8/1 23/8/1
f 26/8/1 24/8/1 25/8/1
f 29/8/1 28/8/1 27/8/1
f 30/8/1 28/8/1 29/8/1
f 33/8/1 32/8/1 31/8/1
f 34/8/1 32/8/1 33/8/1
f 37/8/1 36/8/1 35/8/1
f 38/8/1 36/8/1 37/8/1
f 41/8/1 40/8/1 39/8/1
f 42/8/1 40/8/1 41/8/1
f 45/6/1 44/6/1 43/6/1
f 46/6/1 44/6/1 45/6/1
f 47/8/1 46/8/1 45/8/1
f 48/8/1 46/8/1 47/8/1
f 49/8/1 46/8/1 48/8/1
f 50/8/1 46/8/1 49/8/1
f 53/6/1 52/6/1 51/6/1
f 54/6/1 52/6/1 53/6/1
f 57/8/1 54/8/1 53/8/1
f 60/8/1 56/8/1 55/8/1
f 61/8/1 58/8/1 57/8/1
f 61/8/1 57/8/1 53/8/1
f 62/8/1 58/8/1 61/8/1
f 63/8/1 58/8/1 62/8/1
f 64/8/1 60/8/1 59/8/1
f 65/8/1 56/8/1 60/8/1
f 65/8/1 60/8/1 64/8/1
f 66/8/1 56/8/1 65/8/1
f 67/8/1 63/8/1 62/8/1
f 67/8/1 64/8/1 63/8/1
f 67/8/1 65/8/1 64/8/1
f 68/8/1 65/8/1 67/8/1
f 69/8/1 65/8/1 68/8/1
f 70/8/1 65/8/1 69/8/1
f 71/8/1 69/8/1 68/8/1
f 72/8/1 69/8/1 71/8/1
f 76/8/1 74/8/1 73/8/1
f 77/8/1 76/8/1 75/8/1
f 78/8/1 74/8/1 76/8/1
f 78/8/1 76/8/1 77/8/1
f 81/5/1 80/5/1 79/5/1
f 82/5/1 80/5/1 81/5/1
f 83/6/1 82/6/1 81/6/1
f 84/6/1 82/6/1 83/6/1
f 85/7/2 86/7/2 87/7/2
f 87/7/2 86/7/2 88/7/2
f 89/5/2 90/5/2 91/5/2
f 91/5/2 90/5/2 92/5/2
f 91/6/2 92/6/2 93/6/2
f 93/6/2 92/6/2 94/6/2
f 93/8/2 94/8/2 95/8/2
f 95/8/2 94/8/2 96/8/2
f 97/8/2 98/8/2 99/8/2
f 99/8/2 98/8/2 100/8/2
f 101/8/2 102/8/2 103/8/2
f 103/8/2 102/8/2 104/8/2
f 105/8/2 106/8/2 107/8/2
f 107/8/2 106/8/2 108/8/2
f 109/8/2 110/8/2 113/8/2
f 111/8/2 112/8/2 113/8/2
f 110/8/2 111/8/2 113/8/2
f 113/8/2 112/8/2 114/8/2
f 115/8/2 116/8/2 117/8/2
f 117/8/2 116/8/2 118/8/2
f 119/6/2 120/6/2 121/6/2
f 121/6/2 120/6/2 122/6/2
f 121/8/2 122/8/2 123/8/2
f 123/8/2 122/8/2 124/8/2
f 125/6/2 126/6/2 127/6/2
f 127/6/2 126/6/2 128/6/2
f 127/8/2 128/8/2 129/8/2
f 129/8/2 128/8/2 130/8/2
f 130/8/2 128/8/2 132/8/2
f 131/8/2 132/8/2 135/8/2
f 132/8/2 128/8/2 135/8/2
f 133/8/2 134/8/2 138/8/2
f 135/8/2 136/8/2 139/8/2
f 131/8/2 135/8/2 139/8/2
f 139/8/2 136/8/2 140/8/2
f 140/8/2 136/8/2 141/8/2
f 137/8/2 138/8/2 142/8/2
f 138/8/2 134/8/2 143/8/2
f 142/8/2 138/8/2 143/8/2
f 143/8/2 134/8/2 144/8/2
f 140/8/2 141/8/2 145/8/2
f 141/8/2 142/8/2 145/8/2
f 142/8/2 143/8/2 145/8/2
f 145/8/2 143/8/2 146/8/2
f 146/8/2 143/8/2 147/8/2
f 147/8/2 143/8/2 148/8/2
f 146/8/2 147/8/2 149/8/2
f 149/8/2 147/8/2 150/8/2
f 151/8/2 152/8/2 153/8/2
f 153/8/2 152/8/2 154/8/2
f 155/5/2 156/5/2 157/5/2
f 157/5/2 156/5/2 158/5/2
f 157/1/2 158/1/2 159/1/2
f 159/1/2 158/1/2 160/1/2
f 161/3/2 162/3/2 165/3/2
f 165/3/2 162/3/2 166/3/2
f 163/3/2 164/3/2 167/3/2
f 167/3/2 164/3/2 168/3/2
f 169/3/2 170/3/2 171/3/2
f 171/3/2 170/3/2 172/3/2
f 175/3/3 174/3/3 173/3/3
f 176/3/3 174/3/3 175/3/3
f 179/3/3 178/3/3 177/3/3
f 180/3/3 178/3/3 179/3/3
f 183/3/3 182/3/3 181/3/3
f 184/3/3 182/3/3 183/3/3
f 191/6/3 189/6/3 188/6/3
f 192/8/3 190/8/3 189/8/3
f 192/6/3 189/6/3 191/6/3
f 193/8/3 190/8/3 192/8/3
f 197/6/3 195/6/3 194/6/3
f 198/8/3 196/8/3 195/8/3
f 198/6/3 195/6/3 197/6/3
f 199/8/3 196/8/3 198/8/3
f 200/8/3 196/8/3 199/8/3
f 201/8/3 196/8/3 200/8/3
f 202/8/3 200/8/3 199/8/3
f 204/8/3 202/8/3 199/8/3
f 204/8/3 203/8/3 202/8/3
f 205/8/3 203/8/3 204/8/3
f 206/5/3 186/5/3 185/5/3
f 207/1/3 187/1/3 186/1/3
f 207/5/3 186/5/3 206/5/3
f 208/1/3 187/1/3 207/1/3
f 211/8/3 210/8/3 209/8/3
f 212/8/3 210/8/3 211/8/3
f 215/8/3 214/8/3 213/8/3
f 216/8/3 214/8/3 215/8/3
f 219/8/3 218/8/3 217/8/3
f 220/8/3 218/8/3 219/8/3
f 223/8/3 222/8/3 221/8/3
f 224/8/3 222/8/3 223/8/3
f 227/8/3 226/8/3 225/8/3
f 228/8/3 226/8/3 227/8/3
f 231/8/3 230/8/3 229/8/3
f 232/8/3 230/8/3 231/8/3
f 235/7/3 234/7/3 233/7/3
f 236/7/3 234/7/3 235/7/3
f 241/6/3 239/6/3 238/6/3
f 241/8/3 240/8/3 239/8/3
f 242/8/3 240/8/3 241/8/3
f 243/6/3 241/6/3 238/6/3
f 245/6/3 243/6/3 238/6/3
f 245/8/3 244/8/3 243/8/3
f 246/8/3 244/8/3 245/8/3
f 247/6/3 245/6/3 238/6/3
f 249/6/3 247/6/3 238/6/3
f 249/8/3 248/8/3 247/8/3
f 250/8/3 248/8/3 249/8/3
f 251/6/3 249/6/3 238/6/3
f 253/6/3 251/6/3 238/6/3
f 253/8/3 252/8/3 251/8/3
f 254/8/3 252/8/3 253/8/3
f 255/6/3 253/6/3 238/6/3
f 256/5/3 238/5/3 237/5/3
f 257/6/3 255/6/3 238/6/3
f 257/5/3 238/5/3 256/5/3
f 258/6/3 255/6/3 257/6/3
f 259/8/4 260/8/4 261/8/4
f 261/8/4 260/8/4 262/8/4
f 264/8/4 265/8/4 266/8/4
f 266/8/4 265/8/4 267/8/4
f 263/6/4 264/6/4 268/6/4
f 264/8/4 266/8/4 269/8/4
f 268/6/4 264/6/4 269/6/4
f 269/8/4 266/8/4 270/8/4
f 271/6/4 272/6/4 274/6/4
f 272/8/4 273/8/4 275/8/4
f 274/6/4 272/6/4 275/6/4
f 275/8/4 273/8/4 276/8/4
f 277/8/4 278/8/4 279/8/4
f 279/8/4 278/8/4 280/8/4
f 281/8/4 282/8/4 283/8/4
f 283/8/4 282/8/4 284/8/4
f 286/6/4 287/6/4 289/6/4
f 287/8/4 288/8/4 289/8/4
f 289/8/4 288/8/4 290/8/4
f 286/6/4 289/6/4 291/6/4
f 286/6/4 291/6/4 293/6/4
f 291/8/4 292/8/4 293/8/4
f 293/8/4 292/8/4 294/8/4
f 286/6/4 293/6/4 295/6/4
f 286/6/4 295/6/4 297/6/4
f 295/8/4 296/8/4 297/8/4
f 297/8/4 296/8/4 298/8/4
f 286/6/4 297/6/4 299/6/4
f 286/6/4 299/6/4 301/6/4
f 299/8/4 300/8/4 301/8/4
f 301/8/4 300/8/4 302/8/4
f 286/6/4 301/6/4 303/6/4
f 285/5/4 286/5/4 304/5/4
f 286/6/4 303/6/4 305/6/4
f 304/5/4 286/5/4 305/5/4
f 305/6/4 303/6/4 306/6/4
f 307/8/4 308/8/4 309/8/4
f 309/8/4 308/8/4 310/8/4
f 311/8/4 312/8/4 313/8/4
f 313/8/4 312/8/4 314/8/4
f 315/8/4 316/8/4 317/8/4
f 317/8/4 316/8/4 318/8/4
f 319/7/4 320/7/4 321/7/4
f 321/7/4 320/7/4 322/7/4
f 323/8/4 324/8/4 325/8/4
f 325/8/4 324/8/4 326/8/4
f 327/5/4 328/5/4 330/5/4
f 328/1/4 329/1/4 331/1/4
f 330/5/4 328/5/4 331/5/4
f 331/1/4 329/1/4 332/1/4
f 333/3/4 334/3/4 335/3/4
f 335/3/4 334/3/4 336/3/4
f 337/3/4 338/3/4 339/3/4
f 339/3/4 338/3/4 340/3/4
f 341/3/4 342/3/4 343/3/4
f 343/3/4 342/3/4 344/3/4
f 347/5/5 346/5/5 345/5/5
f 348/5/5 346/5/5 347/5/5
f 352/3/5 350/3/5 349/3/5
f 353/3/5 350/3/5 352/3/5
f 355/3/5 352/3/5 351/3/5
f 355/3/5 354/3/5 353/3/5
f 355/3/5 353/3/5 352/3/5
f 356/3/5 354/3/5 355/3/5
f 357/3/5 355/3/5 351/3/5
f 358/3/5 354/3/5 356/3/5
f 359/3/5 357/3/5 351/3/5
f 359/3/5 358/3/5 357/3/5
f 360/3/5 358/3/5 359/3/5
f 361/3/5 354/3/5 358/3/5
f 361/3/5 358/3/5 360/3/5
f 362/3/5 354/3/5 361/3/5
f 363/3/5 361/3/5 360/3/5
f 364/3/5 361/3/5 363/3/5
f 373/8/5 366/8/5 365/8/5
f 374/8/5 366/8/5 373/8/5
f 375/8/5 368/8/5 367/8/5
f 376/8/5 368/8/5 375/8/5
f 377/8/5 370/8/5 369/8/5
f 378/8/5 370/8/5 377/8/5
f 379/8/5 372/8/5 371/8/5
f 380/8/5 372/8/5 379/8/5
f 383/8/5 382/8/5 381/8/5
f 384/8/5 382/8/5 383/8/5
f 385/8/5 382/8/5 384/8/5
f 386/8/5 382/8/5 385/8/5
f 389/8/5 388/8/5 387/8/5
f 390/8/5 388/8/5 389/8/5
f 393/8/5 392/8/5 391/8/5
f 394/8/5 392/8/5 393/8/5
f 397/8/5 396/8/5 395/8/5
f 398/8/5 396/8/5 397/8/5
f 401/8/5 400/8/5 399/8/5
f 402/8/5 400/8/5 401/8/5
f 403/5/6 404/5/6 405/5/6
f 405/5/6 404/5/6 406/5/6
f 407/3/6 408/3/6 410/3/6
f 410/3/6 408/3/6 411/3/6
f 410/4/6 411/4/6 413/4/6
f 413/4/6 411/4/6 414/4/6
f 414/4/6 411/4/6 415/4/6
f 415/4/6 411/4/6 416/4/6
f 410/4/6 413/4/6 417/4/6
f 414/4/6 415/4/6 418/4/6
f 418/4/6 415/4/6 419/4/6
f 416/4/6 411/4/6 420/4/6
f 418/4/6 419/4/6 421/4/6
f 419/4/6 420/4/6 421/4/6
f 410/4/6 417/4/6 421/4/6
f 417/4/6 418/4/6 421/4/6
f 421/4/6 420/4/6 422/4/6
f 420/4/6 411/4/6 423/4/6
f 422/4/6 420/4/6 423/4/6
f 422/6/6 423/6/6 424/6/6
f 424/6/6 423/6/6 425/6/6
f 410/4/6 421/4/6 426/4/6
f 426/4/6 421/4/6 427/4/6
f 410/4/6 426/4/6 428/4/6
f 427/4/6 421/4/6 429/4/6
f 425/6/6 423/6/6 431/6/6
f 428/4/6 429/4/6 432/4/6
f 429/4/6 421/4/6 432/4/6
f 430/6/6 431/6/6 433/6/6
f 423/4/6 411/4/6 434/4/6
f 431/6/6 423/6/6 434/6/6
f 433/6/6 431/6/6 434/6/6
f 409/3/6 410/3/6 435/3/6
f 432/4/6 433/4/6 436/4/6
f 435/3/6 410/3/6 436/3/6
f 428/4/6 432/4/6 436/4/6
f 433/4/6 434/4/6 436/4/6
f 410/4/6 428/4/6 436/4/6
f 434/4/6 411/4/6 437/4/6
f 436/4/6 434/4/6 437/4/6
f 411/3/6 412/3/6 437/3/6
f 437/3/6 412/3/6 438/3/6
f 436/3/6 437/3/6 439/3/6
f 439/3/6 437/3/6 440/3/6
f 441/8/6 442/8/6 443/8/6
f 443/8/6 442/8/6 444/8/6
f 444/8/6 442/8/6 445/8/6
f 445/8/6 442/8/6 446/8/6
f 446/8/6 442/8/6 447/8/6
f 447/8/6 442/8/6 448/8/6
f 448/8/6 442/8/6 449/8/6
f 449/8/6 442/8/6 450/8/6
f 451/7/6 452/7/6 453/7/6
f 453/7/6 452/7/6 454/7/6
f 453/2/6 454/2/6 455/2/6
f 454/7/6 452/7/6 456/7/6
f 455/2/6 454/2/6 456/2/6
f 453/2/6 455/2/6 457/2/6
f 455/7/6 456/7/6 457/7/6
f 456/7/6 452/7/6 458/7/6
f 457/7/6 456/7/6 458/7/6
f 451/7/6 453/7/6 459/7/6
f 453/2/6 457/2/6 459/2/6
f 457/2/6 458/2/6 459/2/6
f 459/2/6 458/2/6 460/2/6
f 451/7/6 459/7/6 461/7/6
f 459/7/6 460/7/6 461/7/6
f 460/2/6 458/2/6 462/2/6
f 461/7/6 460/7/6 462/7/6
f 461/2/6 462/2/6 463/2/6
f 458/7/6 452/7/6 464/7/6
f 463/2/6 462/2/6 464/2/6
f 462/2/6 458/2/6 464/2/6
f 461/2/6 463/2/6 465/2/6
f 451/7/6 461/7/6 465/7/6
f 465/2/6 463/2/6 466/2/6
f 463/7/6 464/7/6 467/7/6
f 466/2/6 463/2/6 467/2/6
f 464/7/6 452/7/6 468/7/6
f 467/7/6 464/7/6 468/7/6
f 465/7/6 466/7/6 469/7/6
f 451/7/6 465/7/6 469/7/6
f 466/2/6 467/2/6 470/2/6
f 469/7/6 466/7/6 470/7/6
f 467/2/6 468/2/6 470/2/6
f 451/7/6 469/7/6 471/7/6
f 469/2/6 470/2/6 471/2/6
f 470/2/6 468/2/6 472/2/6
f 471/2/6 470/2/6 472/2/6
f 468/7/6 452/7/6 472/7/6
f 451/7/6 471/7/6 473/7/6
f 471/7/6 472/7/6 473/7/6
f 472/7/6 452/7/6 474/7/6
f 473/7/6 472/7/6 474/7/6
f 441/8/6 443/8/6 475/8/6
f 444/8/6 445/8/6 476/8/6
f 476/8/6 445/8/6 477/8/6
f 446/8/6 447/8/6 478/8/6
f 478/8/6 447/8/6 479/8/6
f 448/8/6 449/8/6 480/8/6
f 480/8/6 449/8/6 481/8/6
f 450/8/6 442/8/6 482/8/6
f 480/8/6 481/8/6 483/8/6
f 481/8/6 482/8/6 483/8/6
f 441/8/6 475/8/6 483/8/6
f 478/8/6 479/8/6 483/8/6
f 479/8/6 480/8/6 483/8/6
f 476/8/6 477/8/6 483/8/6
f 477/8/6 478/8/6 483/8/6
f 475/8/6 476/8/6 483/8/6
f 482/8/6 442/8/6 484/8/6
f 483/8/6 482/8/6 484/8/6
f 485/8/6 486/8/6 487/8/6
f 487/8/6 486/8/6 488/8/6
f 488/8/6 486/8/6 489/8/6
f 489/8/6 486/8/6 490/8/6
f 491/8/6 492/8/6 495/8/6
f 495/8/6 492/8/6 496/8/6
f 493/8/6 494/8/6 497/8/6
f 497/8/6 494/8/6 498/8/6
f 499/8/6 500/8/6 501/8/6
f 501/8/6 500/8/6 502/8/6
f 503/8/6 504/8/6 505/8/6
f 505/8/6 504/8/6 506/8/6
f 507/8/6 508/8/6 509/8/6
f 509/8/6 508/8/6 510/8/6
f 511/8/6 512/8/6 513/8/6
f 513/8/6 512/8/6 514/8/6
f 515/8/6 516/8/6 517/8/6
f 517/8/6 516/8/6 518/8/6
f 519/8/6 520/8/6 521/8/6
f 521/8/6 520/8/6 522/8/6
