# MagicaVoxel @ Ephtracy

# group
o 

# material
mtllib 1_Chopping.mtl
usemtl palette

# normals
vn -1 0 0
vn 1 0 0
vn 0 0 1
vn 0 0 -1
vn 0 -1 0
vn 0 1 0

# texcoords
vt 0.0332031 0.5
vt 0.0371094 0.5
vt 0.0644531 0.5
vt 0.0683594 0.5

# verts
v -1.1 0 0.3
v -1.1 0 0.2
v -1.1 0 0
v -1.1 0.2 0.3
v -1.1 0.2 0.2
v -1.1 0.4 0.3
v -1.1 0.4 0
v -1 0 0.4
v -1 0 0.3
v -1 0 0
v -1 0 -0.4
v -1 0.2 0.4
v -1 0.2 0.3
v -1 0.4 0.4
v -1 0.4 0.3
v -1 0.4 0
v -1 0.4 -0.4
v -0.1 0 0.2
v -0.1 0 -0.2
v -0.1 0.1 0.2
v -0.1 0.1 -0.2
v 0 0 0.3
v 0 0 0.2
v 0 0 -0.2
v 0 0 -0.3
v 0 0.1 0.3
v 0 0.1 0.2
v 0 0.1 -0.2
v 0 0.1 -0.3
v 0.1 0.1 0.4
v 0.1 0.1 0.3
v 0.1 0.1 0.2
v 0.1 0.1 0
v 0.1 0.1 -0.2
v 0.1 0.1 -0.3
v 0.1 0.1 -0.4
v 0.1 0.2 0.4
v 0.1 0.2 0.3
v 0.1 0.2 0
v 0.1 0.2 -0.3
v 0.1 0.2 -0.4
v 0.3 0 0.2
v 0.3 0 -0.2
v 0.3 0.1 0.2
v 0.3 0.1 -0.2
v 0.3 0.2 0.4
v 0.3 0.2 0.3
v 0.3 0.2 -0.3
v 0.3 0.2 -0.4
v 0.3 0.3 0.4
v 0.3 0.3 0.3
v 0.3 0.3 -0.3
v 0.3 0.3 -0.4
v 0.4 0 0.3
v 0.4 0 0.2
v 0.4 0 -0.2
v 0.4 0 -0.3
v 0.4 0.1 0.3
v 0.4 0.1 0.2
v 0.4 0.1 -0.2
v 0.4 0.1 -0.3
v 0.5 0 0.4
v 0.5 0 0.3
v 0.5 0 -0.3
v 0.5 0 -0.4
v 0.5 0.1 0.4
v 0.5 0.1 0.3
v 0.5 0.1 -0.3
v 0.5 0.1 -0.4
v -0.4 0 0.4
v -0.4 0 0.3
v -0.4 0 0
v -0.4 0 -0.4
v -0.4 0.1 0.4
v -0.4 0.1 0.3
v -0.4 0.1 0
v -0.4 0.1 -0.4
v -0.4 0.4 0.4
v -0.4 0.4 0.3
v -0.4 0.4 0
v -0.4 0.4 -0.4
v -0.3 0 0.3
v -0.3 0 0
v -0.3 0.1 0.3
v -0.3 0.1 0
v -0.3 0.4 0.3
v -0.3 0.4 0
v 0.1 0 0.3
v 0.1 0 0.2
v 0.1 0 -0.2
v 0.1 0 -0.3
v 0.1 0.1 0.3
v 0.1 0.1 0.2
v 0.1 0.1 0
v 0.1 0.1 -0.2
v 0.1 0.1 -0.3
v 0.3 0.1 0.4
v 0.3 0.1 0.3
v 0.3 0.1 0.2
v 0.3 0.1 -0.2
v 0.3 0.1 -0.3
v 0.3 0.1 -0.4
v 0.3 0.2 0.4
v 0.3 0.2 0.3
v 0.3 0.2 -0.3
v 0.3 0.2 -0.4
v 0.4 0.2 0.4
v 0.4 0.2 0.3
v 0.4 0.2 -0.3
v 0.4 0.2 -0.4
v 0.4 0.3 0.4
v 0.4 0.3 0.3
v 0.4 0.3 -0.3
v 0.4 0.3 -0.4
v 0.5 0.2 0.3
v 0.5 0.2 0.2
v 0.5 0.2 -0.2
v 0.5 0.2 -0.3
v 0.5 0.3 0.3
v 0.5 0.3 0.2
v 0.5 0.3 -0.2
v 0.5 0.3 -0.3
v 0.6 0.2 0.2
v 0.6 0.2 -0.2
v 0.6 0.3 0.2
v 0.6 0.3 -0.2
v 0.9 0 0.4
v 0.9 0 0.3
v 0.9 0 -0.3
v 0.9 0 -0.4
v 0.9 0.1 0.4
v 0.9 0.1 0.3
v 0.9 0.1 -0.3
v 0.9 0.1 -0.4
v 1 0 0.3
v 1 0 0.2
v 1 0 -0.2
v 1 0 -0.3
v 1 0.1 0.3
v 1 0.1 0.2
v 1 0.1 -0.2
v 1 0.1 -0.3
v 1.1 0 0.2
v 1.1 0 -0.2
v 1.1 0.1 0.2
v 1.1 0.1 -0.2
v -1 0 0.4
v -1 0.2 0.4
v -1 0.4 0.4
v -0.8 0.1 0.4
v -0.8 0.2 0.4
v -0.4 0 0.4
v -0.4 0.1 0.4
v -0.4 0.4 0.4
v 0.1 0.1 0.4
v 0.1 0.2 0.4
v 0.3 0.1 0.4
v 0.3 0.2 0.4
v 0.3 0.3 0.4
v 0.4 0.2 0.4
v 0.4 0.3 0.4
v 0.5 0 0.4
v 0.5 0.1 0.4
v 0.6 0 0.4
v 0.6 0.1 0.4
v 0.9 0 0.4
v 0.9 0.1 0.4
v -1.1 0 0.3
v -1.1 0.2 0.3
v -1.1 0.4 0.3
v -1 0 0.3
v -1 0.2 0.3
v -1 0.4 0.3
v -0.4 0 0.3
v -0.4 0.1 0.3
v -0.4 0.4 0.3
v -0.3 0 0.3
v -0.3 0.1 0.3
v -0.3 0.4 0.3
v 0 0 0.3
v 0 0.1 0.3
v 0.1 0 0.3
v 0.1 0.1 0.3
v 0.4 0 0.3
v 0.4 0.1 0.3
v 0.4 0.2 0.3
v 0.4 0.3 0.3
v 0.5 0 0.3
v 0.5 0.1 0.3
v 0.5 0.2 0.3
v 0.5 0.3 0.3
v 0.9 0 0.3
v 0.9 0.1 0.3
v 1 0 0.3
v 1 0.1 0.3
v -0.1 0 0.2
v -0.1 0.1 0.2
v 0 0 0.2
v 0 0.1 0.2
v 0.3 0 0.2
v 0.3 0.1 0.2
v 0.4 0 0.2
v 0.4 0.1 0.2
v 0.5 0.2 0.2
v 0.5 0.3 0.2
v 0.6 0.2 0.2
v 0.6 0.3 0.2
v 1 0 0.2
v 1 0.1 0.2
v 1.1 0 0.2
v 1.1 0.1 0.2
v -1.1 0 0
v -1.1 0.4 0
v -1 0 0
v -1 0.4 0
v -0.4 0 0
v -0.4 0.1 0
v -0.4 0.4 0
v -0.3 0 0
v -0.3 0.1 0
v -0.3 0.4 0
v -0.1 0 -0.2
v -0.1 0.1 -0.2
v 0 0 -0.2
v 0 0.1 -0.2
v 0.3 0 -0.2
v 0.3 0.1 -0.2
v 0.4 0 -0.2
v 0.4 0.1 -0.2
v 0.5 0.2 -0.2
v 0.5 0.3 -0.2
v 0.6 0.2 -0.2
v 0.6 0.3 -0.2
v 1 0 -0.2
v 1 0.1 -0.2
v 1.1 0 -0.2
v 1.1 0.1 -0.2
v 0 0 -0.3
v 0 0.1 -0.3
v 0.1 0 -0.3
v 0.1 0.1 -0.3
v 0.4 0 -0.3
v 0.4 0.1 -0.3
v 0.4 0.2 -0.3
v 0.4 0.3 -0.3
v 0.5 0 -0.3
v 0.5 0.1 -0.3
v 0.5 0.2 -0.3
v 0.5 0.3 -0.3
v 0.9 0 -0.3
v 0.9 0.1 -0.3
v 1 0 -0.3
v 1 0.1 -0.3
v -1 0 -0.4
v -1 0.4 -0.4
v -0.9 0 -0.4
v -0.9 0.3 -0.4
v -0.9 0.4 -0.4
v -0.5 0 -0.4
v -0.5 0.1 -0.4
v -0.5 0.3 -0.4
v -0.5 0.4 -0.4
v -0.4 0 -0.4
v -0.4 0.1 -0.4
v -0.4 0.4 -0.4
v 0.1 0.1 -0.4
v 0.1 0.2 -0.4
v 0.3 0.1 -0.4
v 0.3 0.2 -0.4
v 0.3 0.3 -0.4
v 0.4 0.2 -0.4
v 0.4 0.3 -0.4
v 0.5 0 -0.4
v 0.5 0.1 -0.4
v 0.7 0 -0.4
v 0.7 0.1 -0.4
v 0.9 0 -0.4
v 0.9 0.1 -0.4
v -1 0 0.4
v -0.4 0 0.4
v 0.5 0 0.4
v 0.6 0 0.4
v 0.9 0 0.4
v -1.1 0 0.3
v -1 0 0.3
v -0.4 0 0.3
v -0.3 0 0.3
v 0 0 0.3
v 0.1 0 0.3
v 0.4 0 0.3
v 0.5 0 0.3
v 0.6 0 0.3
v 0.9 0 0.3
v 1 0 0.3
v -1.1 0 0.2
v -1 0 0.2
v -0.1 0 0.2
v 0 0 0.2
v 0.1 0 0.2
v 0.3 0 0.2
v 0.4 0 0.2
v 0.5 0 0.2
v 0.9 0 0.2
v 1 0 0.2
v 1.1 0 0.2
v -1.1 0 0
v -1 0 0
v -0.9 0 0
v -0.5 0 0
v -0.4 0 0
v -0.3 0 0
v 0.6 0 0
v 0.7 0 0
v -0.1 0 -0.2
v 0 0 -0.2
v 0.1 0 -0.2
v 0.3 0 -0.2
v 0.4 0 -0.2
v 0.5 0 -0.2
v 0.9 0 -0.2
v 1 0 -0.2
v 1.1 0 -0.2
v 0 0 -0.3
v 0.1 0 -0.3
v 0.4 0 -0.3
v 0.5 0 -0.3
v 0.7 0 -0.3
v 0.9 0 -0.3
v 1 0 -0.3
v -1 0 -0.4
v -0.9 0 -0.4
v -0.5 0 -0.4
v -0.4 0 -0.4
v 0.5 0 -0.4
v 0.7 0 -0.4
v 0.9 0 -0.4
v 0.1 0.1 0.4
v 0.3 0.1 0.4
v 0.1 0.1 0.3
v 0.3 0.1 0.3
v 0.1 0.1 0.2
v 0.3 0.1 0.2
v 0.1 0.1 0
v 0.2 0.1 0
v 0.1 0.1 -0.2
v 0.3 0.1 -0.2
v 0.1 0.1 -0.3
v 0.2 0.1 -0.3
v 0.3 0.1 -0.3
v 0.1 0.1 -0.4
v 0.3 0.1 -0.4
v 0.3 0.2 0.4
v 0.4 0.2 0.4
v 0.3 0.2 0.3
v 0.4 0.2 0.3
v 0.5 0.2 0.3
v 0.4 0.2 0.2
v 0.5 0.2 0.2
v 0.6 0.2 0.2
v 0.4 0.2 -0.2
v 0.5 0.2 -0.2
v 0.6 0.2 -0.2
v 0.3 0.2 -0.3
v 0.4 0.2 -0.3
v 0.5 0.2 -0.3
v 0.3 0.2 -0.4
v 0.4 0.2 -0.4
v 0.5 0.1 0.4
v 0.6 0.1 0.4
v 0.9 0.1 0.4
v 0 0.1 0.3
v 0.1 0.1 0.3
v 0.4 0.1 0.3
v 0.5 0.1 0.3
v 0.6 0.1 0.3
v 0.9 0.1 0.3
v 1 0.1 0.3
v -0.1 0.1 0.2
v 0 0.1 0.2
v 0.1 0.1 0.2
v 0.3 0.1 0.2
v 0.4 0.1 0.2
v 0.5 0.1 0.2
v 0.9 0.1 0.2
v 1 0.1 0.2
v 1.1 0.1 0.2
v 0.1 0.1 0
v 0.6 0.1 0
v 0.7 0.1 0
v -0.1 0.1 -0.2
v 0 0.1 -0.2
v 0.1 0.1 -0.2
v 0.3 0.1 -0.2
v 0.4 0.1 -0.2
v 0.5 0.1 -0.2
v 0.9 0.1 -0.2
v 1 0.1 -0.2
v 1.1 0.1 -0.2
v 0 0.1 -0.3
v 0.1 0.1 -0.3
v 0.4 0.1 -0.3
v 0.5 0.1 -0.3
v 0.7 0.1 -0.3
v 0.9 0.1 -0.3
v 1 0.1 -0.3
v 0.5 0.1 -0.4
v 0.7 0.1 -0.4
v 0.9 0.1 -0.4
v 0.1 0.2 0.4
v 0.3 0.2 0.4
v 0.1 0.2 0.3
v 0.3 0.2 0.3
v 0.1 0.2 0
v 0.2 0.2 0
v 0.1 0.2 -0.3
v 0.2 0.2 -0.3
v 0.3 0.2 -0.3
v 0.1 0.2 -0.4
v 0.3 0.2 -0.4
v 0.3 0.3 0.4
v 0.4 0.3 0.4
v 0.3 0.3 0.3
v 0.4 0.3 0.3
v 0.5 0.3 0.3
v 0.4 0.3 0.2
v 0.5 0.3 0.2
v 0.6 0.3 0.2
v 0.4 0.3 -0.2
v 0.5 0.3 -0.2
v 0.6 0.3 -0.2
v 0.3 0.3 -0.3
v 0.4 0.3 -0.3
v 0.5 0.3 -0.3
v 0.3 0.3 -0.4
v 0.4 0.3 -0.4
v -1 0.4 0.4
v -0.4 0.4 0.4
v -1.1 0.4 0.3
v -1 0.4 0.3
v -0.4 0.4 0.3
v -0.3 0.4 0.3
v -1.1 0.4 0
v -1 0.4 0
v -0.9 0.4 0
v -0.5 0.4 0
v -0.4 0.4 0
v -0.3 0.4 0
v -0.9 0.4 -0.2
v -0.7 0.4 -0.2
v -0.7 0.4 -0.3
v -0.5 0.4 -0.3
v -1 0.4 -0.4
v -0.9 0.4 -0.4
v -0.5 0.4 -0.4
v -0.4 0.4 -0.4

# faces
f 4/4/1 2/4/1 1/4/1
f 5/3/1 3/3/1 2/3/1
f 5/4/1 2/4/1 4/4/1
f 6/3/1 5/3/1 4/3/1
f 7/3/1 3/3/1 5/3/1
f 7/3/1 5/3/1 6/3/1
f 12/4/1 9/4/1 8/4/1
f 13/4/1 9/4/1 12/4/1
f 14/3/1 13/3/1 12/3/1
f 15/3/1 13/3/1 14/3/1
f 16/3/1 11/3/1 10/3/1
f 17/3/1 11/3/1 16/3/1
f 20/3/1 19/3/1 18/3/1
f 21/3/1 19/3/1 20/3/1
f 26/3/1 23/3/1 22/3/1
f 27/3/1 23/3/1 26/3/1
f 28/3/1 25/3/1 24/3/1
f 29/3/1 25/3/1 28/3/1
f 37/3/1 31/3/1 30/3/1
f 38/1/1 32/1/1 31/1/1
f 38/3/1 31/3/1 37/3/1
f 38/1/1 33/1/1 32/1/1
f 39/2/1 35/2/1 34/2/1
f 39/1/1 33/1/1 38/1/1
f 39/2/1 34/2/1 33/2/1
f 40/3/1 36/3/1 35/3/1
f 40/2/1 35/2/1 39/2/1
f 41/3/1 36/3/1 40/3/1
f 44/4/1 43/4/1 42/4/1
f 45/4/1 43/4/1 44/4/1
f 50/3/1 47/3/1 46/3/1
f 51/1/1 48/1/1 47/1/1
f 51/3/1 47/3/1 50/3/1
f 52/3/1 49/3/1 48/3/1
f 52/1/1 48/1/1 51/1/1
f 53/3/1 49/3/1 52/3/1
f 58/4/1 55/4/1 54/4/1
f 59/4/1 55/4/1 58/4/1
f 60/4/1 57/4/1 56/4/1
f 61/4/1 57/4/1 60/4/1
f 66/4/1 63/4/1 62/4/1
f 67/4/1 63/4/1 66/4/1
f 68/4/1 65/4/1 64/4/1
f 69/4/1 65/4/1 68/4/1
f 70/4/2 71/4/2 74/4/2
f 74/4/2 71/4/2 75/4/2
f 72/4/2 73/4/2 76/4/2
f 76/4/2 73/4/2 77/4/2
f 74/3/2 75/3/2 78/3/2
f 78/3/2 75/3/2 79/3/2
f 76/3/2 77/3/2 80/3/2
f 80/3/2 77/3/2 81/3/2
f 82/4/2 83/4/2 84/4/2
f 84/4/2 83/4/2 85/4/2
f 84/3/2 85/3/2 86/3/2
f 86/3/2 85/3/2 87/3/2
f 88/3/2 89/3/2 92/3/2
f 89/2/2 90/2/2 93/2/2
f 92/3/2 89/3/2 93/3/2
f 93/2/2 90/2/2 94/2/2
f 90/3/2 91/3/2 95/3/2
f 94/2/2 90/2/2 95/2/2
f 95/3/2 91/3/2 96/3/2
f 97/3/2 98/3/2 103/3/2
f 98/1/2 99/1/2 104/1/2
f 103/3/2 98/3/2 104/3/2
f 99/1/2 100/1/2 104/1/2
f 100/1/2 101/1/2 104/1/2
f 101/3/2 102/3/2 105/3/2
f 104/1/2 101/1/2 105/1/2
f 105/3/2 102/3/2 106/3/2
f 107/3/2 108/3/2 111/3/2
f 111/3/2 108/3/2 112/3/2
f 109/3/2 110/3/2 113/3/2
f 113/3/2 110/3/2 114/3/2
f 115/3/2 116/3/2 119/3/2
f 119/3/2 116/3/2 120/3/2
f 117/3/2 118/3/2 121/3/2
f 121/3/2 118/3/2 122/3/2
f 123/3/2 124/3/2 125/3/2
f 125/3/2 124/3/2 126/3/2
f 127/3/2 128/3/2 131/3/2
f 131/3/2 128/3/2 132/3/2
f 129/3/2 130/3/2 133/3/2
f 133/3/2 130/3/2 134/3/2
f 135/3/2 136/3/2 139/3/2
f 139/3/2 136/3/2 140/3/2
f 137/3/2 138/3/2 141/3/2
f 141/3/2 138/3/2 142/3/2
f 143/3/2 144/3/2 145/3/2
f 145/3/2 144/3/2 146/3/2
f 150/4/3 148/4/3 147/4/3
f 151/3/3 149/3/3 148/3/3
f 151/4/3 148/4/3 150/4/3
f 152/4/3 150/4/3 147/4/3
f 153/3/3 151/3/3 150/3/3
f 153/4/3 150/4/3 152/4/3
f 154/3/3 149/3/3 151/3/3
f 154/3/3 151/3/3 153/3/3
f 157/3/3 156/3/3 155/3/3
f 158/3/3 156/3/3 157/3/3
f 160/3/3 159/3/3 158/3/3
f 161/3/3 159/3/3 160/3/3
f 164/4/3 163/4/3 162/4/3
f 165/4/3 163/4/3 164/4/3
f 166/3/3 165/3/3 164/3/3
f 167/3/3 165/3/3 166/3/3
f 171/4/3 169/4/3 168/4/3
f 172/3/3 170/3/3 169/3/3
f 172/4/3 169/4/3 171/4/3
f 173/3/3 170/3/3 172/3/3
f 177/4/3 175/4/3 174/4/3
f 178/3/3 176/3/3 175/3/3
f 178/4/3 175/4/3 177/4/3
f 179/3/3 176/3/3 178/3/3
f 182/3/3 181/3/3 180/3/3
f 183/3/3 181/3/3 182/3/3
f 188/4/3 185/4/3 184/4/3
f 189/4/3 185/4/3 188/4/3
f 190/3/3 187/3/3 186/3/3
f 191/3/3 187/3/3 190/3/3
f 194/3/3 193/3/3 192/3/3
f 195/3/3 193/3/3 194/3/3
f 198/3/3 197/3/3 196/3/3
f 199/3/3 197/3/3 198/3/3
f 202/4/3 201/4/3 200/4/3
f 203/4/3 201/4/3 202/4/3
f 206/3/3 205/3/3 204/3/3
f 207/3/3 205/3/3 206/3/3
f 210/3/3 209/3/3 208/3/3
f 211/3/3 209/3/3 210/3/3
f 212/3/4 213/3/4 214/3/4
f 214/3/4 213/3/4 215/3/4
f 216/4/4 217/4/4 219/4/4
f 217/3/4 218/3/4 220/3/4
f 219/4/4 217/4/4 220/4/4
f 220/3/4 218/3/4 221/3/4
f 222/3/4 223/3/4 224/3/4
f 224/3/4 223/3/4 225/3/4
f 226/4/4 227/4/4 228/4/4
f 228/4/4 227/4/4 229/4/4
f 230/3/4 231/3/4 232/3/4
f 232/3/4 231/3/4 233/3/4
f 234/3/4 235/3/4 236/3/4
f 236/3/4 235/3/4 237/3/4
f 238/3/4 239/3/4 240/3/4
f 240/3/4 239/3/4 241/3/4
f 242/4/4 243/4/4 246/4/4
f 246/4/4 243/4/4 247/4/4
f 244/3/4 245/3/4 248/3/4
f 248/3/4 245/3/4 249/3/4
f 250/3/4 251/3/4 252/3/4
f 252/3/4 251/3/4 253/3/4
f 254/3/4 255/3/4 256/3/4
f 256/3/4 255/3/4 257/3/4
f 257/3/4 255/3/4 258/3/4
f 256/1/4 257/1/4 259/1/4
f 259/1/4 257/1/4 260/1/4
f 257/2/4 258/2/4 261/2/4
f 260/1/4 257/1/4 261/1/4
f 261/2/4 258/2/4 262/2/4
f 259/4/4 260/4/4 263/4/4
f 260/3/4 261/3/4 264/3/4
f 263/4/4 260/4/4 264/4/4
f 261/3/4 262/3/4 264/3/4
f 264/3/4 262/3/4 265/3/4
f 266/3/4 267/3/4 268/3/4
f 268/3/4 267/3/4 269/3/4
f 269/3/4 270/3/4 271/3/4
f 271/3/4 270/3/4 272/3/4
f 273/4/4 274/4/4 275/4/4
f 275/4/4 274/4/4 276/4/4
f 275/3/4 276/3/4 277/3/4
f 277/3/4 276/3/4 278/3/4
f 285/4/5 280/4/5 279/4/5
f 286/4/5 280/4/5 285/4/5
f 291/4/5 282/4/5 281/4/5
f 292/3/5 283/3/5 282/3/5
f 292/4/5 282/4/5 291/4/5
f 293/3/5 283/3/5 292/3/5
f 295/4/5 285/4/5 284/4/5
f 296/1/5 286/1/5 285/1/5
f 296/4/5 285/4/5 295/4/5
f 298/3/5 289/3/5 288/3/5
f 299/3/5 289/3/5 298/3/5
f 301/4/5 291/4/5 290/4/5
f 302/2/5 292/2/5 291/2/5
f 302/4/5 291/4/5 301/4/5
f 303/3/5 294/3/5 293/3/5
f 303/1/5 293/1/5 292/1/5
f 304/3/5 294/3/5 303/3/5
f 306/3/5 296/3/5 295/3/5
f 307/1/5 286/1/5 296/1/5
f 307/3/5 296/3/5 306/3/5
f 308/1/5 286/1/5 307/1/5
f 309/1/5 286/1/5 308/1/5
f 310/4/5 287/4/5 286/4/5
f 310/1/5 286/1/5 309/1/5
f 311/4/5 287/4/5 310/4/5
f 312/2/5 292/2/5 302/2/5
f 312/2/5 302/2/5 301/2/5
f 312/1/5 303/1/5 292/1/5
f 312/1/5 304/1/5 303/1/5
f 313/1/5 304/1/5 312/1/5
f 314/3/5 298/3/5 297/3/5
f 315/2/5 299/2/5 298/2/5
f 315/3/5 298/3/5 314/3/5
f 316/2/5 299/2/5 315/2/5
f 317/4/5 301/4/5 300/4/5
f 318/2/5 313/2/5 312/2/5
f 318/4/5 301/4/5 317/4/5
f 318/2/5 312/2/5 301/2/5
f 319/2/5 313/2/5 318/2/5
f 320/1/5 304/1/5 313/1/5
f 321/3/5 305/3/5 304/3/5
f 321/1/5 304/1/5 320/1/5
f 322/3/5 305/3/5 321/3/5
f 323/3/5 316/3/5 315/3/5
f 324/3/5 316/3/5 323/3/5
f 325/4/5 319/4/5 318/4/5
f 326/2/5 313/2/5 319/2/5
f 326/4/5 319/4/5 325/4/5
f 327/1/5 320/1/5 313/1/5
f 327/2/5 313/2/5 326/2/5
f 328/3/5 321/3/5 320/3/5
f 328/1/5 320/1/5 327/1/5
f 329/3/5 321/3/5 328/3/5
f 330/3/5 308/3/5 307/3/5
f 331/1/5 309/1/5 308/1/5
f 331/3/5 308/3/5 330/3/5
f 332/4/5 310/4/5 309/4/5
f 332/1/5 309/1/5 331/1/5
f 333/4/5 310/4/5 332/4/5
f 334/4/5 327/4/5 326/4/5
f 335/3/5 328/3/5 327/3/5
f 335/4/5 327/4/5 334/4/5
f 336/3/5 328/3/5 335/3/5
f 339/3/5 338/3/5 337/3/5
f 340/3/5 338/3/5 339/3/5
f 341/1/5 340/1/5 339/1/5
f 342/1/5 340/1/5 341/1/5
f 343/1/5 342/1/5 341/1/5
f 344/1/5 342/1/5 343/1/5
f 345/2/5 344/2/5 343/2/5
f 346/1/5 342/1/5 344/1/5
f 347/2/5 344/2/5 345/2/5
f 348/1/5 346/1/5 344/1/5
f 348/2/5 344/2/5 347/2/5
f 349/1/5 346/1/5 348/1/5
f 350/3/5 348/3/5 347/3/5
f 350/3/5 349/3/5 348/3/5
f 351/3/5 349/3/5 350/3/5
f 354/3/5 353/3/5 352/3/5
f 355/3/5 353/3/5 354/3/5
f 357/1/5 355/1/5 354/1/5
f 357/3/5 356/3/5 355/3/5
f 358/3/5 356/3/5 357/3/5
f 360/1/5 357/1/5 354/1/5
f 360/1/5 358/1/5 357/1/5
f 361/3/5 359/3/5 358/3/5
f 361/1/5 358/1/5 360/1/5
f 362/3/5 359/3/5 361/3/5
f 363/1/5 360/1/5 354/1/5
f 364/3/5 361/3/5 360/3/5
f 364/1/5 360/1/5 363/1/5
f 365/3/5 361/3/5 364/3/5
f 366/3/5 364/3/5 363/3/5
f 367/3/5 364/3/5 366/3/5
f 368/4/6 369/4/6 374/4/6
f 369/3/6 370/3/6 375/3/6
f 374/4/6 369/4/6 375/4/6
f 375/3/6 370/3/6 376/3/6
f 371/3/6 372/3/6 379/3/6
f 379/3/6 372/3/6 380/3/6
f 373/4/6 374/4/6 382/4/6
f 374/2/6 375/2/6 383/2/6
f 382/4/6 374/4/6 383/4/6
f 376/3/6 377/3/6 384/3/6
f 375/1/6 376/1/6 384/1/6
f 384/3/6 377/3/6 385/3/6
f 379/2/6 380/2/6 387/2/6
f 383/2/6 375/2/6 388/2/6
f 382/2/6 383/2/6 388/2/6
f 384/1/6 385/1/6 388/1/6
f 375/1/6 384/1/6 388/1/6
f 388/1/6 385/1/6 389/1/6
f 378/3/6 379/3/6 390/3/6
f 379/2/6 387/2/6 391/2/6
f 390/3/6 379/3/6 391/3/6
f 391/2/6 387/2/6 392/2/6
f 381/4/6 382/4/6 393/4/6
f 382/2/6 388/2/6 394/2/6
f 393/4/6 382/4/6 394/4/6
f 388/2/6 389/2/6 394/2/6
f 394/2/6 389/2/6 395/2/6
f 389/1/6 385/1/6 396/1/6
f 385/3/6 386/3/6 397/3/6
f 396/1/6 385/1/6 397/1/6
f 397/3/6 386/3/6 398/3/6
f 391/3/6 392/3/6 399/3/6
f 399/3/6 392/3/6 400/3/6
f 394/4/6 395/4/6 401/4/6
f 395/2/6 389/2/6 402/2/6
f 401/4/6 395/4/6 402/4/6
f 389/1/6 396/1/6 403/1/6
f 402/2/6 389/2/6 403/2/6
f 396/3/6 397/3/6 404/3/6
f 403/1/6 396/1/6 404/1/6
f 404/3/6 397/3/6 405/3/6
f 402/4/6 403/4/6 406/4/6
f 403/3/6 404/3/6 407/3/6
f 406/4/6 403/4/6 407/4/6
f 407/3/6 404/3/6 408/3/6
f 409/3/6 410/3/6 411/3/6
f 411/3/6 410/3/6 412/3/6
f 411/1/6 412/1/6 413/1/6
f 413/1/6 412/1/6 414/1/6
f 413/2/6 414/2/6 415/2/6
f 414/1/6 412/1/6 416/1/6
f 415/2/6 414/2/6 416/2/6
f 416/1/6 412/1/6 417/1/6
f 415/3/6 416/3/6 418/3/6
f 416/3/6 417/3/6 418/3/6
f 418/3/6 417/3/6 419/3/6
f 420/3/6 421/3/6 422/3/6
f 422/3/6 421/3/6 423/3/6
f 422/1/6 423/1/6 425/1/6
f 423/3/6 424/3/6 425/3/6
f 425/3/6 424/3/6 426/3/6
f 422/1/6 425/1/6 428/1/6
f 425/1/6 426/1/6 428/1/6
f 426/3/6 427/3/6 429/3/6
f 428/1/6 426/1/6 429/1/6
f 429/3/6 427/3/6 430/3/6
f 422/1/6 428/1/6 431/1/6
f 428/3/6 429/3/6 432/3/6
f 431/1/6 428/1/6 432/1/6
f 432/3/6 429/3/6 433/3/6
f 431/3/6 432/3/6 434/3/6
f 434/3/6 432/3/6 435/3/6
f 436/3/6 437/3/6 439/3/6
f 439/3/6 437/3/6 440/3/6
f 438/3/6 439/3/6 442/3/6
f 439/1/6 440/1/6 443/1/6
f 442/3/6 439/3/6 443/3/6
f 443/1/6 440/1/6 444/1/6
f 444/1/6 440/1/6 445/1/6
f 440/3/6 441/3/6 446/3/6
f 445/1/6 440/1/6 446/1/6
f 446/3/6 441/3/6 447/3/6
f 444/1/6 445/1/6 448/1/6
f 443/3/6 444/3/6 448/3/6
f 448/1/6 445/1/6 449/1/6
f 448/2/6 449/2/6 450/2/6
f 449/1/6 445/1/6 450/1/6
f 445/3/6 446/3/6 451/3/6
f 450/1/6 445/1/6 451/1/6
f 443/3/6 448/3/6 452/3/6
f 448/2/6 450/2/6 453/2/6
f 452/3/6 448/3/6 453/3/6
f 450/2/6 451/2/6 453/2/6
f 451/3/6 446/3/6 454/3/6
f 453/2/6 451/2/6 454/2/6
f 454/3/6 446/3/6 455/3/6
