# MagicaVoxel @ Ephtracy

# group
o 

# material
mtllib 5_On_Dish.mtl
usemtl palette

# normals
vn -1 0 0
vn 1 0 0
vn 0 0 1
vn 0 0 -1
vn 0 -1 0
vn 0 1 0

# texcoords
vt 0.0332031 0.5
vt 0.0371094 0.5
vt 0.0410156 0.5
vt 0.0449219 0.5

# verts
v -0.4 0 0.3
v -0.4 0 -0.4
v -0.4 0.1 0.2
v -0.4 0.1 0.1
v -0.4 0.1 -0.3
v -0.4 0.1 -0.4
v -0.4 0.2 0.3
v -0.4 0.2 0.2
v -0.4 0.2 0.1
v -0.4 0.2 -0.3
v -0.4 0.2 -0.4
v -0.3 0 0.4
v -0.3 0 0.3
v -0.3 0 -0.4
v -0.3 0 -0.5
v -0.3 0.1 -0.4
v -0.3 0.2 0.4
v -0.3 0.2 0.3
v -0.3 0.2 -0.4
v -0.3 0.2 -0.5
v 0.4 0 0.4
v 0.4 0 0.3
v 0.4 0 -0.4
v 0.4 0 -0.5
v 0.4 0.1 0.4
v 0.4 0.1 0.3
v 0.4 0.1 -0.4
v 0.4 0.2 0.4
v 0.4 0.2 0.3
v 0.4 0.2 -0.4
v 0.4 0.2 -0.5
v 0.5 0 0.3
v 0.5 0 -0.4
v 0.5 0.1 0
v 0.5 0.1 -0.1
v 0.5 0.1 -0.3
v 0.5 0.1 -0.4
v 0.5 0.2 0.3
v 0.5 0.2 0
v 0.5 0.2 -0.1
v 0.5 0.2 -0.3
v 0.5 0.2 -0.4
v -0.3 0 0.4
v -0.3 0.2 0.4
v 0.3 0.1 0.4
v 0.3 0.2 0.4
v 0.4 0 0.4
v 0.4 0.1 0.4
v 0.4 0.2 0.4
v -0.4 0 0.3
v -0.4 0.2 0.3
v -0.3 0 0.3
v -0.3 0.2 0.3
v 0.4 0 0.3
v 0.4 0.1 0.3
v 0.4 0.2 0.3
v 0.5 0 0.3
v 0.5 0.2 0.3
v -0.4 0 -0.4
v -0.4 0.1 -0.4
v -0.4 0.2 -0.4
v -0.3 0 -0.4
v -0.3 0.1 -0.4
v -0.3 0.2 -0.4
v 0.4 0 -0.4
v 0.4 0.1 -0.4
v 0.4 0.2 -0.4
v 0.5 0 -0.4
v 0.5 0.1 -0.4
v 0.5 0.2 -0.4
v -0.3 0 -0.5
v -0.3 0.2 -0.5
v -0.2 0.1 -0.5
v -0.2 0.2 -0.5
v -0.1 0.1 -0.5
v -0.1 0.2 -0.5
v 0.1 0.1 -0.5
v 0.1 0.2 -0.5
v 0.2 0.1 -0.5
v 0.2 0.2 -0.5
v 0.4 0 -0.5
v 0.4 0.2 -0.5
v -0.3 0 0.4
v 0.4 0 0.4
v -0.4 0 0.3
v -0.3 0 0.3
v 0.4 0 0.3
v 0.5 0 0.3
v -0.4 0 -0.4
v -0.3 0 -0.4
v 0.4 0 -0.4
v 0.5 0 -0.4
v -0.3 0 -0.5
v 0.4 0 -0.5
v -0.3 0.2 0.4
v 0.3 0.2 0.4
v 0.4 0.2 0.4
v -0.4 0.2 0.3
v -0.3 0.2 0.3
v 0.2 0.2 0.3
v 0.3 0.2 0.3
v 0.4 0.2 0.3
v 0.5 0.2 0.3
v -0.4 0.2 0.2
v -0.3 0.2 0.2
v -0.1 0.2 0.2
v 0.1 0.2 0.2
v 0.2 0.2 0.2
v 0.3 0.2 0.2
v -0.4 0.2 0.1
v -0.3 0.2 0.1
v -0.2 0.2 0.1
v -0.1 0.2 0.1
v 0.1 0.2 0.1
v 0.2 0.2 0.1
v 0.3 0.2 0.1
v -0.3 0.2 0
v -0.2 0.2 0
v -0.1 0.2 0
v 0.2 0.2 0
v 0.3 0.2 0
v 0.4 0.2 0
v 0.5 0.2 0
v 0.2 0.2 -0.1
v 0.3 0.2 -0.1
v 0.4 0.2 -0.1
v 0.5 0.2 -0.1
v -0.2 0.2 -0.2
v -0.1 0.2 -0.2
v 0 0.2 -0.2
v 0.2 0.2 -0.2
v 0.3 0.2 -0.2
v -0.4 0.2 -0.3
v -0.3 0.2 -0.3
v -0.2 0.2 -0.3
v -0.1 0.2 -0.3
v 0 0.2 -0.3
v 0.2 0.2 -0.3
v 0.3 0.2 -0.3
v 0.4 0.2 -0.3
v 0.5 0.2 -0.3
v -0.4 0.2 -0.4
v -0.3 0.2 -0.4
v -0.2 0.2 -0.4
v -0.1 0.2 -0.4
v 0.1 0.2 -0.4
v 0.2 0.2 -0.4
v 0.4 0.2 -0.4
v 0.5 0.2 -0.4
v -0.3 0.2 -0.5
v -0.2 0.2 -0.5
v -0.1 0.2 -0.5
v 0.1 0.2 -0.5
v 0.2 0.2 -0.5
v 0.4 0.2 -0.5

# faces
f 3/4/1 2/4/1 1/4/1
f 4/4/1 2/4/1 3/4/1
f 5/4/1 2/4/1 4/4/1
f 6/4/1 2/4/1 5/4/1
f 7/4/1 3/4/1 1/4/1
f 8/2/1 4/2/1 3/2/1
f 8/4/1 3/4/1 7/4/1
f 9/4/1 5/4/1 4/4/1
f 9/2/1 4/2/1 8/2/1
f 10/2/1 6/2/1 5/2/1
f 10/4/1 5/4/1 9/4/1
f 11/2/1 6/2/1 10/2/1
f 16/4/1 15/4/1 14/4/1
f 17/4/1 13/4/1 12/4/1
f 18/4/1 13/4/1 17/4/1
f 19/4/1 15/4/1 16/4/1
f 20/4/1 15/4/1 19/4/1
f 21/4/2 22/4/2 25/4/2
f 25/4/2 22/4/2 26/4/2
f 23/4/2 24/4/2 27/4/2
f 25/2/2 26/2/2 28/2/2
f 28/2/2 26/2/2 29/2/2
f 27/4/2 24/4/2 30/4/2
f 30/4/2 24/4/2 31/4/2
f 32/4/2 33/4/2 34/4/2
f 34/4/2 33/4/2 35/4/2
f 35/4/2 33/4/2 36/4/2
f 36/4/2 33/4/2 37/4/2
f 32/4/2 34/4/2 38/4/2
f 34/2/2 35/2/2 39/2/2
f 38/4/2 34/4/2 39/4/2
f 35/4/2 36/4/2 40/4/2
f 39/2/2 35/2/2 40/2/2
f 36/2/2 37/2/2 41/2/2
f 40/4/2 36/4/2 41/4/2
f 41/2/2 37/2/2 42/2/2
f 45/4/3 44/4/3 43/4/3
f 46/4/3 44/4/3 45/4/3
f 47/4/3 45/4/3 43/4/3
f 48/2/3 46/2/3 45/2/3
f 48/4/3 45/4/3 47/4/3
f 49/2/3 46/2/3 48/2/3
f 52/4/3 51/4/3 50/4/3
f 53/4/3 51/4/3 52/4/3
f 57/4/3 55/4/3 54/4/3
f 57/4/3 56/4/3 55/4/3
f 58/4/3 56/4/3 57/4/3
f 59/4/4 60/4/4 62/4/4
f 60/2/4 61/2/4 63/2/4
f 62/4/4 60/4/4 63/4/4
f 63/2/4 61/2/4 64/2/4
f 65/4/4 66/4/4 68/4/4
f 66/2/4 67/2/4 69/2/4
f 68/4/4 66/4/4 69/4/4
f 69/2/4 67/2/4 70/2/4
f 71/4/4 72/4/4 73/4/4
f 73/4/4 72/4/4 74/4/4
f 71/4/4 73/4/4 75/4/4
f 73/2/4 74/2/4 75/2/4
f 75/2/4 74/2/4 76/2/4
f 71/4/4 75/4/4 77/4/4
f 75/4/4 76/4/4 77/4/4
f 77/4/4 76/4/4 78/4/4
f 71/4/4 77/4/4 79/4/4
f 77/2/4 78/2/4 79/2/4
f 79/2/4 78/2/4 80/2/4
f 71/4/4 79/4/4 81/4/4
f 79/4/4 80/4/4 81/4/4
f 81/4/4 80/4/4 82/4/4
f 86/4/5 84/4/5 83/4/5
f 87/4/5 84/4/5 86/4/5
f 89/4/5 86/4/5 85/4/5
f 89/4/5 88/4/5 87/4/5
f 89/4/5 87/4/5 86/4/5
f 90/4/5 88/4/5 89/4/5
f 91/4/5 88/4/5 90/4/5
f 92/4/5 88/4/5 91/4/5
f 93/4/5 91/4/5 90/4/5
f 94/4/5 91/4/5 93/4/5
f 95/4/6 96/4/6 99/4/6
f 99/4/6 96/4/6 100/4/6
f 96/2/6 97/2/6 101/2/6
f 100/4/6 96/4/6 101/4/6
f 101/2/6 97/2/6 102/2/6
f 98/4/6 99/4/6 104/4/6
f 99/3/6 100/3/6 105/3/6
f 104/4/6 99/4/6 105/4/6
f 105/3/6 100/3/6 106/3/6
f 106/3/6 100/3/6 107/3/6
f 100/2/6 101/2/6 108/2/6
f 107/3/6 100/3/6 108/3/6
f 101/3/6 102/3/6 109/3/6
f 108/2/6 101/2/6 109/2/6
f 104/2/6 105/2/6 110/2/6
f 105/3/6 106/3/6 111/3/6
f 110/2/6 105/2/6 111/2/6
f 111/3/6 106/3/6 112/3/6
f 106/2/6 107/2/6 113/2/6
f 112/3/6 106/3/6 113/3/6
f 107/1/6 108/1/6 114/1/6
f 113/2/6 107/2/6 114/2/6
f 108/3/6 109/3/6 115/3/6
f 114/1/6 108/1/6 115/1/6
f 109/3/6 102/3/6 116/3/6
f 115/3/6 109/3/6 116/3/6
f 111/2/6 112/2/6 117/2/6
f 110/4/6 111/4/6 117/4/6
f 112/1/6 113/1/6 118/1/6
f 117/2/6 112/2/6 118/2/6
f 114/1/6 115/1/6 118/1/6
f 113/1/6 114/1/6 118/1/6
f 118/1/6 115/1/6 119/1/6
f 115/2/6 116/2/6 120/2/6
f 119/1/6 115/1/6 120/1/6
f 116/3/6 102/3/6 121/3/6
f 120/2/6 116/2/6 121/2/6
f 102/4/6 103/4/6 122/4/6
f 121/3/6 102/3/6 122/3/6
f 122/4/6 103/4/6 123/4/6
f 120/1/6 121/1/6 124/1/6
f 119/1/6 120/1/6 124/1/6
f 122/2/6 123/2/6 125/2/6
f 124/1/6 121/1/6 125/1/6
f 121/2/6 122/2/6 125/2/6
f 125/2/6 123/2/6 126/2/6
f 126/2/6 123/2/6 127/2/6
f 118/2/6 119/2/6 128/2/6
f 117/3/6 118/3/6 128/3/6
f 119/1/6 124/1/6 129/1/6
f 128/2/6 119/2/6 129/2/6
f 129/1/6 124/1/6 130/1/6
f 124/2/6 125/2/6 131/2/6
f 130/1/6 124/1/6 131/1/6
f 125/3/6 126/3/6 132/3/6
f 131/2/6 125/2/6 132/2/6
f 110/4/6 117/4/6 133/4/6
f 117/3/6 128/3/6 134/3/6
f 133/4/6 117/4/6 134/4/6
f 128/3/6 129/3/6 134/3/6
f 134/3/6 129/3/6 135/3/6
f 129/1/6 130/1/6 136/1/6
f 135/3/6 129/3/6 136/3/6
f 130/2/6 131/2/6 137/2/6
f 136/1/6 130/1/6 137/1/6
f 131/1/6 132/1/6 138/1/6
f 137/2/6 131/2/6 138/2/6
f 132/3/6 126/3/6 139/3/6
f 138/1/6 132/1/6 139/1/6
f 126/4/6 127/4/6 140/4/6
f 139/3/6 126/3/6 140/3/6
f 140/4/6 127/4/6 141/4/6
f 134/2/6 135/2/6 142/2/6
f 133/2/6 134/2/6 142/2/6
f 142/2/6 135/2/6 143/2/6
f 135/1/6 136/1/6 144/1/6
f 143/2/6 135/2/6 144/2/6
f 137/3/6 138/3/6 145/3/6
f 144/1/6 136/1/6 145/1/6
f 136/3/6 137/3/6 145/3/6
f 145/3/6 138/3/6 146/3/6
f 138/2/6 139/2/6 147/2/6
f 146/3/6 138/3/6 147/3/6
f 140/2/6 141/2/6 147/2/6
f 139/2/6 140/2/6 147/2/6
f 147/2/6 141/2/6 148/2/6
f 148/2/6 141/2/6 149/2/6
f 143/4/6 144/4/6 150/4/6
f 144/2/6 145/2/6 151/2/6
f 150/4/6 144/4/6 151/4/6
f 145/4/6 146/4/6 152/4/6
f 151/2/6 145/2/6 152/2/6
f 146/2/6 147/2/6 153/2/6
f 152/4/6 146/4/6 153/4/6
f 147/4/6 148/4/6 154/4/6
f 153/2/6 147/2/6 154/2/6
f 154/4/6 148/4/6 155/4/6
