# MagicaVoxel @ Ephtracy

# group
o 

# material
mtllib 2_On_Dish.mtl
usemtl palette

# normals
vn -1 0 0
vn 1 0 0
vn 0 0 1
vn 0 0 -1
vn 0 -1 0
vn 0 1 0

# texcoords
vt 0.0332031 0.5
vt 0.0371094 0.5
vt 0.0410156 0.5
vt 0.0644531 0.5

# verts
v -0.4 0 0.3
v -0.4 0 -0.4
v -0.4 0.1 0.3
v -0.4 0.1 0.2
v -0.4 0.1 0.1
v -0.4 0.1 0
v -0.4 0.1 -0.1
v -0.4 0.1 -0.2
v -0.4 0.1 -0.3
v -0.4 0.1 -0.4
v -0.4 0.2 0.3
v -0.4 0.2 0.2
v -0.4 0.2 0.1
v -0.4 0.2 0
v -0.4 0.2 -0.1
v -0.4 0.2 -0.2
v -0.4 0.2 -0.3
v -0.4 0.2 -0.4
v -0.3 0 0.4
v -0.3 0 0.3
v -0.3 0 -0.4
v -0.3 0 -0.5
v -0.3 0.1 0.4
v -0.3 0.1 0.3
v -0.3 0.1 -0.4
v -0.3 0.1 -0.5
v -0.3 0.2 0.4
v -0.3 0.2 0.3
v -0.3 0.2 -0.4
v -0.3 0.2 -0.5
v 0.4 0 0.4
v 0.4 0 0.3
v 0.4 0 -0.4
v 0.4 0 -0.5
v 0.4 0.1 0.4
v 0.4 0.1 0.3
v 0.4 0.1 -0.4
v 0.4 0.1 -0.5
v 0.4 0.2 0.4
v 0.4 0.2 0.3
v 0.4 0.2 -0.4
v 0.4 0.2 -0.5
v 0.5 0 0.3
v 0.5 0 -0.4
v 0.5 0.1 0.3
v 0.5 0.1 0.2
v 0.5 0.1 0.1
v 0.5 0.1 0
v 0.5 0.1 -0.1
v 0.5 0.1 -0.2
v 0.5 0.1 -0.3
v 0.5 0.1 -0.4
v 0.5 0.2 0.3
v 0.5 0.2 0.2
v 0.5 0.2 0.1
v 0.5 0.2 0
v 0.5 0.2 -0.1
v 0.5 0.2 -0.2
v 0.5 0.2 -0.3
v 0.5 0.2 -0.4
v -0.3 0 0.4
v -0.3 0.1 0.4
v -0.3 0.2 0.4
v -0.2 0.1 0.4
v -0.2 0.2 0.4
v -0.1 0.1 0.4
v -0.1 0.2 0.4
v 0 0.1 0.4
v 0 0.2 0.4
v 0.1 0.1 0.4
v 0.1 0.2 0.4
v 0.2 0.1 0.4
v 0.2 0.2 0.4
v 0.3 0.1 0.4
v 0.3 0.2 0.4
v 0.4 0 0.4
v 0.4 0.1 0.4
v 0.4 0.2 0.4
v -0.4 0 0.3
v -0.4 0.1 0.3
v -0.4 0.2 0.3
v -0.3 0 0.3
v -0.3 0.1 0.3
v -0.3 0.2 0.3
v 0.4 0 0.3
v 0.4 0.1 0.3
v 0.4 0.2 0.3
v 0.5 0 0.3
v 0.5 0.1 0.3
v 0.5 0.2 0.3
v -0.4 0 -0.4
v -0.4 0.1 -0.4
v -0.4 0.2 -0.4
v -0.3 0 -0.4
v -0.3 0.1 -0.4
v -0.3 0.2 -0.4
v 0.4 0 -0.4
v 0.4 0.1 -0.4
v 0.4 0.2 -0.4
v 0.5 0 -0.4
v 0.5 0.1 -0.4
v 0.5 0.2 -0.4
v -0.3 0 -0.5
v -0.3 0.1 -0.5
v -0.3 0.2 -0.5
v -0.2 0.1 -0.5
v -0.2 0.2 -0.5
v -0.1 0.1 -0.5
v -0.1 0.2 -0.5
v 0 0.1 -0.5
v 0 0.2 -0.5
v 0.1 0.1 -0.5
v 0.1 0.2 -0.5
v 0.2 0.1 -0.5
v 0.2 0.2 -0.5
v 0.3 0.1 -0.5
v 0.3 0.2 -0.5
v 0.4 0 -0.5
v 0.4 0.1 -0.5
v 0.4 0.2 -0.5
v -0.3 0 0.4
v 0.4 0 0.4
v -0.4 0 0.3
v -0.3 0 0.3
v 0.4 0 0.3
v 0.5 0 0.3
v -0.4 0 -0.4
v -0.3 0 -0.4
v 0.4 0 -0.4
v 0.5 0 -0.4
v -0.3 0 -0.5
v 0.4 0 -0.5
v -0.3 0.2 0.4
v -0.2 0.2 0.4
v -0.1 0.2 0.4
v 0 0.2 0.4
v 0.1 0.2 0.4
v 0.2 0.2 0.4
v 0.3 0.2 0.4
v 0.4 0.2 0.4
v -0.4 0.2 0.3
v -0.3 0.2 0.3
v -0.2 0.2 0.3
v -0.1 0.2 0.3
v 0 0.2 0.3
v 0.1 0.2 0.3
v 0.2 0.2 0.3
v 0.3 0.2 0.3
v 0.4 0.2 0.3
v 0.5 0.2 0.3
v -0.4 0.2 0.2
v -0.3 0.2 0.2
v -0.2 0.2 0.2
v 0 0.2 0.2
v 0.1 0.2 0.2
v 0.3 0.2 0.2
v 0.4 0.2 0.2
v 0.5 0.2 0.2
v -0.4 0.2 0.1
v -0.3 0.2 0.1
v -0.2 0.2 0.1
v -0.1 0.2 0.1
v 0.1 0.2 0.1
v 0.2 0.2 0.1
v 0.4 0.2 0.1
v 0.5 0.2 0.1
v -0.4 0.2 0
v -0.3 0.2 0
v -0.2 0.2 0
v -0.1 0.2 0
v 0 0.2 0
v 0.1 0.2 0
v 0.2 0.2 0
v 0.3 0.2 0
v 0.4 0.2 0
v 0.5 0.2 0
v -0.4 0.2 -0.1
v -0.3 0.2 -0.1
v -0.2 0.2 -0.1
v 0 0.2 -0.1
v 0.1 0.2 -0.1
v 0.3 0.2 -0.1
v 0.4 0.2 -0.1
v 0.5 0.2 -0.1
v -0.4 0.2 -0.2
v -0.3 0.2 -0.2
v -0.2 0.2 -0.2
v -0.1 0.2 -0.2
v 0.1 0.2 -0.2
v 0.2 0.2 -0.2
v 0.4 0.2 -0.2
v 0.5 0.2 -0.2
v -0.4 0.2 -0.3
v -0.3 0.2 -0.3
v -0.2 0.2 -0.3
v -0.1 0.2 -0.3
v 0 0.2 -0.3
v 0.1 0.2 -0.3
v 0.2 0.2 -0.3
v 0.3 0.2 -0.3
v 0.4 0.2 -0.3
v 0.5 0.2 -0.3
v -0.4 0.2 -0.4
v -0.3 0.2 -0.4
v -0.2 0.2 -0.4
v -0.1 0.2 -0.4
v 0 0.2 -0.4
v 0.1 0.2 -0.4
v 0.2 0.2 -0.4
v 0.3 0.2 -0.4
v 0.4 0.2 -0.4
v 0.5 0.2 -0.4
v -0.3 0.2 -0.5
v -0.2 0.2 -0.5
v -0.1 0.2 -0.5
v 0 0.2 -0.5
v 0.1 0.2 -0.5
v 0.2 0.2 -0.5
v 0.3 0.2 -0.5
v 0.4 0.2 -0.5

# faces
f 3/3/1 2/3/1 1/3/1
f 4/3/1 2/3/1 3/3/1
f 5/3/1 2/3/1 4/3/1
f 6/3/1 2/3/1 5/3/1
f 7/3/1 2/3/1 6/3/1
f 8/3/1 2/3/1 7/3/1
f 9/3/1 2/3/1 8/3/1
f 10/3/1 2/3/1 9/3/1
f 11/2/1 4/2/1 3/2/1
f 12/1/1 5/1/1 4/1/1
f 12/2/1 4/2/1 11/2/1
f 13/4/1 6/4/1 5/4/1
f 13/1/1 5/1/1 12/1/1
f 14/2/1 7/2/1 6/2/1
f 14/4/1 6/4/1 13/4/1
f 15/1/1 8/1/1 7/1/1
f 15/2/1 7/2/1 14/2/1
f 16/4/1 9/4/1 8/4/1
f 16/1/1 8/1/1 15/1/1
f 17/2/1 10/2/1 9/2/1
f 17/4/1 9/4/1 16/4/1
f 18/2/1 10/2/1 17/2/1
f 23/3/1 20/3/1 19/3/1
f 24/3/1 20/3/1 23/3/1
f 25/3/1 22/3/1 21/3/1
f 26/3/1 22/3/1 25/3/1
f 27/2/1 24/2/1 23/2/1
f 28/2/1 24/2/1 27/2/1
f 29/2/1 26/2/1 25/2/1
f 30/2/1 26/2/1 29/2/1
f 31/3/2 32/3/2 35/3/2
f 35/3/2 32/3/2 36/3/2
f 33/3/2 34/3/2 37/3/2
f 37/3/2 34/3/2 38/3/2
f 35/2/2 36/2/2 39/2/2
f 39/2/2 36/2/2 40/2/2
f 37/2/2 38/2/2 41/2/2
f 41/2/2 38/2/2 42/2/2
f 43/3/2 44/3/2 45/3/2
f 45/3/2 44/3/2 46/3/2
f 46/3/2 44/3/2 47/3/2
f 47/3/2 44/3/2 48/3/2
f 48/3/2 44/3/2 49/3/2
f 49/3/2 44/3/2 50/3/2
f 50/3/2 44/3/2 51/3/2
f 51/3/2 44/3/2 52/3/2
f 45/2/2 46/2/2 53/2/2
f 46/1/2 47/1/2 54/1/2
f 53/2/2 46/2/2 54/2/2
f 47/4/2 48/4/2 55/4/2
f 54/1/2 47/1/2 55/1/2
f 48/2/2 49/2/2 56/2/2
f 55/4/2 48/4/2 56/4/2
f 49/1/2 50/1/2 57/1/2
f 56/2/2 49/2/2 57/2/2
f 50/4/2 51/4/2 58/4/2
f 57/1/2 50/1/2 58/1/2
f 51/2/2 52/2/2 59/2/2
f 58/4/2 51/4/2 59/4/2
f 59/2/2 52/2/2 60/2/2
f 64/3/3 62/3/3 61/3/3
f 64/2/3 63/2/3 62/2/3
f 65/2/3 63/2/3 64/2/3
f 66/3/3 64/3/3 61/3/3
f 66/4/3 65/4/3 64/4/3
f 67/4/3 65/4/3 66/4/3
f 68/3/3 66/3/3 61/3/3
f 68/1/3 67/1/3 66/1/3
f 69/1/3 67/1/3 68/1/3
f 70/3/3 68/3/3 61/3/3
f 70/2/3 69/2/3 68/2/3
f 71/2/3 69/2/3 70/2/3
f 72/3/3 70/3/3 61/3/3
f 72/4/3 71/4/3 70/4/3
f 73/4/3 71/4/3 72/4/3
f 74/3/3 72/3/3 61/3/3
f 74/1/3 73/1/3 72/1/3
f 75/1/3 73/1/3 74/1/3
f 76/3/3 74/3/3 61/3/3
f 77/2/3 75/2/3 74/2/3
f 77/3/3 74/3/3 76/3/3
f 78/2/3 75/2/3 77/2/3
f 82/3/3 80/3/3 79/3/3
f 83/2/3 81/2/3 80/2/3
f 83/3/3 80/3/3 82/3/3
f 84/2/3 81/2/3 83/2/3
f 88/3/3 86/3/3 85/3/3
f 89/2/3 87/2/3 86/2/3
f 89/3/3 86/3/3 88/3/3
f 90/2/3 87/2/3 89/2/3
f 91/3/4 92/3/4 94/3/4
f 92/2/4 93/2/4 95/2/4
f 94/3/4 92/3/4 95/3/4
f 95/2/4 93/2/4 96/2/4
f 97/3/4 98/3/4 100/3/4
f 98/2/4 99/2/4 101/2/4
f 100/3/4 98/3/4 101/3/4
f 101/2/4 99/2/4 102/2/4
f 103/3/4 104/3/4 106/3/4
f 104/2/4 105/2/4 106/2/4
f 106/2/4 105/2/4 107/2/4
f 103/3/4 106/3/4 108/3/4
f 106/4/4 107/4/4 108/4/4
f 108/4/4 107/4/4 109/4/4
f 103/3/4 108/3/4 110/3/4
f 108/1/4 109/1/4 110/1/4
f 110/1/4 109/1/4 111/1/4
f 103/3/4 110/3/4 112/3/4
f 110/2/4 111/2/4 112/2/4
f 112/2/4 111/2/4 113/2/4
f 103/3/4 112/3/4 114/3/4
f 112/4/4 113/4/4 114/4/4
f 114/4/4 113/4/4 115/4/4
f 103/3/4 114/3/4 116/3/4
f 114/1/4 115/1/4 116/1/4
f 116/1/4 115/1/4 117/1/4
f 103/3/4 116/3/4 118/3/4
f 116/2/4 117/2/4 119/2/4
f 118/3/4 116/3/4 119/3/4
f 119/2/4 117/2/4 120/2/4
f 124/3/5 122/3/5 121/3/5
f 125/3/5 122/3/5 124/3/5
f 127/3/5 124/3/5 123/3/5
f 127/3/5 126/3/5 125/3/5
f 127/3/5 125/3/5 124/3/5
f 128/3/5 126/3/5 127/3/5
f 129/3/5 126/3/5 128/3/5
f 130/3/5 126/3/5 129/3/5
f 131/3/5 129/3/5 128/3/5
f 132/3/5 129/3/5 131/3/5
f 133/2/6 134/2/6 142/2/6
f 134/4/6 135/4/6 143/4/6
f 142/2/6 134/2/6 143/2/6
f 135/1/6 136/1/6 144/1/6
f 143/4/6 135/4/6 144/4/6
f 136/2/6 137/2/6 145/2/6
f 144/1/6 136/1/6 145/1/6
f 137/4/6 138/4/6 146/4/6
f 145/2/6 137/2/6 146/2/6
f 138/1/6 139/1/6 147/1/6
f 146/4/6 138/4/6 147/4/6
f 139/2/6 140/2/6 148/2/6
f 147/1/6 139/1/6 148/1/6
f 148/2/6 140/2/6 149/2/6
f 146/2/6 147/2/6 151/2/6
f 149/2/6 150/2/6 151/2/6
f 148/2/6 149/2/6 151/2/6
f 147/2/6 148/2/6 151/2/6
f 141/2/6 142/2/6 151/2/6
f 145/2/6 146/2/6 151/2/6
f 144/2/6 145/2/6 151/2/6
f 143/2/6 144/2/6 151/2/6
f 142/2/6 143/2/6 151/2/6
f 151/2/6 150/2/6 152/2/6
f 152/2/6 150/2/6 153/2/6
f 153/2/6 150/2/6 154/2/6
f 154/2/6 150/2/6 155/2/6
f 155/2/6 150/2/6 156/2/6
f 156/2/6 150/2/6 157/2/6
f 157/2/6 150/2/6 158/2/6
f 151/1/6 152/1/6 159/1/6
f 152/2/6 153/2/6 160/2/6
f 159/1/6 152/1/6 160/1/6
f 153/1/6 154/1/6 161/1/6
f 160/2/6 153/2/6 161/2/6
f 161/1/6 154/1/6 162/1/6
f 154/2/6 155/2/6 163/2/6
f 155/1/6 156/1/6 163/1/6
f 163/1/6 156/1/6 164/1/6
f 156/2/6 157/2/6 165/2/6
f 157/1/6 158/1/6 165/1/6
f 165/1/6 158/1/6 166/1/6
f 159/4/6 160/4/6 167/4/6
f 160/2/6 161/2/6 168/2/6
f 167/4/6 160/4/6 168/4/6
f 161/4/6 162/4/6 169/4/6
f 168/2/6 161/2/6 169/2/6
f 162/1/6 154/1/6 170/1/6
f 169/4/6 162/4/6 170/4/6
f 154/2/6 163/2/6 171/2/6
f 170/1/6 154/1/6 171/1/6
f 163/4/6 164/4/6 172/4/6
f 171/2/6 163/2/6 172/2/6
f 164/1/6 156/1/6 173/1/6
f 172/4/6 164/4/6 173/4/6
f 156/2/6 165/2/6 174/2/6
f 173/1/6 156/1/6 174/1/6
f 165/4/6 166/4/6 175/4/6
f 174/2/6 165/2/6 175/2/6
f 175/4/6 166/4/6 176/4/6
f 168/2/6 169/2/6 177/2/6
f 167/2/6 168/2/6 177/2/6
f 175/2/6 176/2/6 177/2/6
f 174/2/6 175/2/6 177/2/6
f 173/2/6 174/2/6 177/2/6
f 172/2/6 173/2/6 177/2/6
f 169/2/6 170/2/6 177/2/6
f 171/2/6 172/2/6 177/2/6
f 170/2/6 171/2/6 177/2/6
f 177/2/6 176/2/6 178/2/6
f 178/2/6 176/2/6 179/2/6
f 179/2/6 176/2/6 180/2/6
f 180/2/6 176/2/6 181/2/6
f 181/2/6 176/2/6 182/2/6
f 182/2/6 176/2/6 183/2/6
f 183/2/6 176/2/6 184/2/6
f 177/1/6 178/1/6 185/1/6
f 178/2/6 179/2/6 186/2/6
f 185/1/6 178/1/6 186/1/6
f 179/1/6 180/1/6 187/1/6
f 186/2/6 179/2/6 187/2/6
f 187/1/6 180/1/6 188/1/6
f 180/2/6 181/2/6 189/2/6
f 181/1/6 182/1/6 189/1/6
f 189/1/6 182/1/6 190/1/6
f 182/2/6 183/2/6 191/2/6
f 183/1/6 184/1/6 191/1/6
f 191/1/6 184/1/6 192/1/6
f 185/4/6 186/4/6 193/4/6
f 186/2/6 187/2/6 194/2/6
f 193/4/6 186/4/6 194/4/6
f 187/4/6 188/4/6 195/4/6
f 194/2/6 187/2/6 195/2/6
f 188/1/6 180/1/6 196/1/6
f 195/4/6 188/4/6 196/4/6
f 180/2/6 189/2/6 197/2/6
f 196/1/6 180/1/6 197/1/6
f 189/4/6 190/4/6 198/4/6
f 197/2/6 189/2/6 198/2/6
f 190/1/6 182/1/6 199/1/6
f 198/4/6 190/4/6 199/4/6
f 182/2/6 191/2/6 200/2/6
f 199/1/6 182/1/6 200/1/6
f 191/4/6 192/4/6 201/4/6
f 200/2/6 191/2/6 201/2/6
f 201/4/6 192/4/6 202/4/6
f 194/2/6 195/2/6 203/2/6
f 193/2/6 194/2/6 203/2/6
f 201/2/6 202/2/6 203/2/6
f 200/2/6 201/2/6 203/2/6
f 199/2/6 200/2/6 203/2/6
f 198/2/6 199/2/6 203/2/6
f 195/2/6 196/2/6 203/2/6
f 197/2/6 198/2/6 203/2/6
f 196/2/6 197/2/6 203/2/6
f 203/2/6 202/2/6 204/2/6
f 204/2/6 202/2/6 205/2/6
f 205/2/6 202/2/6 206/2/6
f 206/2/6 202/2/6 207/2/6
f 207/2/6 202/2/6 208/2/6
f 208/2/6 202/2/6 209/2/6
f 209/2/6 202/2/6 210/2/6
f 210/2/6 202/2/6 211/2/6
f 211/2/6 202/2/6 212/2/6
f 204/2/6 205/2/6 213/2/6
f 205/4/6 206/4/6 214/4/6
f 213/2/6 205/2/6 214/2/6
f 206/1/6 207/1/6 215/1/6
f 214/4/6 206/4/6 215/4/6
f 207/2/6 208/2/6 216/2/6
f 215/1/6 207/1/6 216/1/6
f 208/4/6 209/4/6 217/4/6
f 216/2/6 208/2/6 217/2/6
f 209/1/6 210/1/6 218/1/6
f 217/4/6 209/4/6 218/4/6
f 210/2/6 211/2/6 219/2/6
f 218/1/6 210/1/6 219/1/6
f 219/2/6 211/2/6 220/2/6
