# MagicaVoxel @ Ephtracy

# group
o 

# material
mtllib 5_Sliced.mtl
usemtl palette

# normals
vn -1 0 0
vn 1 0 0
vn 0 0 1
vn 0 0 -1
vn 0 -1 0
vn 0 1 0

# texcoords
vt 0.0332031 0.5
vt 0.0371094 0.5
vt 0.0410156 0.5
vt 0.0449219 0.5

# verts
v -0.6 0 0.2
v -0.6 0 -0.2
v -0.6 0.1 0.2
v -0.6 0.1 -0.2
v -0.5 0 0.3
v -0.5 0 0.2
v -0.5 0 -0.2
v -0.5 0 -0.3
v -0.5 0.1 0.3
v -0.5 0.1 0.2
v -0.5 0.1 -0.2
v -0.5 0.1 -0.3
v -0.4 0.1 0.4
v -0.4 0.1 0.3
v -0.4 0.1 0.2
v -0.4 0.1 0.1
v -0.4 0.1 -0.2
v -0.4 0.1 -0.3
v -0.4 0.1 -0.4
v -0.4 0.2 0.4
v -0.4 0.2 0.3
v -0.4 0.2 0.1
v -0.4 0.2 -0.2
v -0.4 0.2 -0.3
v -0.4 0.2 -0.4
v -0.2 0 0.2
v -0.2 0 -0.2
v -0.2 0.1 0.2
v -0.2 0.1 0.1
v -0.2 0.1 -0.1
v -0.2 0.1 -0.2
v -0.2 0.2 0.4
v -0.2 0.2 0.3
v -0.2 0.2 0.2
v -0.2 0.2 0.1
v -0.2 0.2 0
v -0.2 0.2 -0.1
v -0.2 0.2 -0.2
v -0.2 0.2 -0.3
v -0.2 0.2 -0.4
v -0.2 0.3 0.4
v -0.2 0.3 0.3
v -0.2 0.3 0.2
v -0.2 0.3 0.1
v -0.2 0.3 0
v -0.2 0.3 -0.1
v -0.2 0.3 -0.2
v -0.2 0.3 -0.4
v -0.1 0 0.3
v -0.1 0 0.2
v -0.1 0 -0.2
v -0.1 0 -0.3
v -0.1 0.1 0.3
v -0.1 0.1 0.2
v -0.1 0.1 -0.2
v -0.1 0.1 -0.3
v -5.96046e-08 0 0.4
v -5.96046e-08 0 0.3
v -5.96046e-08 0 -0.3
v -5.96046e-08 0 -0.4
v -5.96046e-08 0.1 0.4
v -5.96046e-08 0.1 0.3
v -5.96046e-08 0.1 -0.3
v -5.96046e-08 0.1 -0.4
v -0.4 0 0.3
v -0.4 0 0.2
v -0.4 0 -0.2
v -0.4 0 -0.3
v -0.4 0.1 0.3
v -0.4 0.1 0.2
v -0.4 0.1 0.1
v -0.4 0.1 -0.2
v -0.4 0.1 -0.3
v -0.2 0.1 0.4
v -0.2 0.1 0.3
v -0.2 0.1 0.2
v -0.2 0.1 0.1
v -0.2 0.1 -0.1
v -0.2 0.1 -0.2
v -0.2 0.1 -0.3
v -0.2 0.1 -0.4
v -0.2 0.2 0.4
v -0.2 0.2 0.3
v -0.2 0.2 0.2
v -0.2 0.2 0.1
v -0.2 0.2 0
v -0.2 0.2 -0.1
v -0.2 0.2 -0.2
v -0.2 0.2 -0.3
v -0.2 0.2 -0.4
v -0.1 0.2 0.4
v -0.1 0.2 0.3
v -0.1 0.2 -0.3
v -0.1 0.2 -0.4
v -0.1 0.3 0.4
v -0.1 0.3 0.3
v -0.1 0.3 -0.3
v -0.1 0.3 -0.4
v -5.96046e-08 0.2 0.3
v -5.96046e-08 0.2 0.2
v -5.96046e-08 0.2 -0.2
v -5.96046e-08 0.2 -0.3
v -5.96046e-08 0.3 0.3
v -5.96046e-08 0.3 0.2
v -5.96046e-08 0.3 -0.2
v -5.96046e-08 0.3 -0.3
v 0.1 0.2 0.2
v 0.1 0.2 -0.2
v 0.1 0.3 0.2
v 0.1 0.3 -0.2
v 0.4 0 0.4
v 0.4 0 0.3
v 0.4 0 -0.3
v 0.4 0 -0.4
v 0.4 0.1 0.4
v 0.4 0.1 0.3
v 0.4 0.1 -0.3
v 0.4 0.1 -0.4
v 0.5 0 0.3
v 0.5 0 0.2
v 0.5 0 -0.2
v 0.5 0 -0.3
v 0.5 0.1 0.3
v 0.5 0.1 0.2
v 0.5 0.1 -0.2
v 0.5 0.1 -0.3
v 0.6 0 0.2
v 0.6 0 -0.2
v 0.6 0.1 0.2
v 0.6 0.1 -0.2
v -0.4 0.1 0.4
v -0.4 0.2 0.4
v -0.2 0.1 0.4
v -0.2 0.2 0.4
v -0.2 0.3 0.4
v -0.1 0.2 0.4
v -0.1 0.3 0.4
v -5.96046e-08 0 0.4
v -5.96046e-08 0.1 0.4
v 0.4 0 0.4
v 0.4 0.1 0.4
v -0.5 0 0.3
v -0.5 0.1 0.3
v -0.4 0 0.3
v -0.4 0.1 0.3
v -0.1 0 0.3
v -0.1 0.1 0.3
v -0.1 0.2 0.3
v -0.1 0.3 0.3
v -5.96046e-08 0 0.3
v -5.96046e-08 0.1 0.3
v -5.96046e-08 0.2 0.3
v -5.96046e-08 0.3 0.3
v 0.4 0 0.3
v 0.4 0.1 0.3
v 0.5 0 0.3
v 0.5 0.1 0.3
v -0.6 0 0.2
v -0.6 0.1 0.2
v -0.5 0 0.2
v -0.5 0.1 0.2
v -0.2 0 0.2
v -0.2 0.1 0.2
v -0.1 0 0.2
v -0.1 0.1 0.2
v -5.96046e-08 0.2 0.2
v -5.96046e-08 0.3 0.2
v 0.1 0.2 0.2
v 0.1 0.3 0.2
v 0.5 0 0.2
v 0.5 0.1 0.2
v 0.6 0 0.2
v 0.6 0.1 0.2
v -0.6 0 -0.2
v -0.6 0.1 -0.2
v -0.5 0 -0.2
v -0.5 0.1 -0.2
v -0.2 0 -0.2
v -0.2 0.1 -0.2
v -0.1 0 -0.2
v -0.1 0.1 -0.2
v -5.96046e-08 0.2 -0.2
v -5.96046e-08 0.3 -0.2
v 0.1 0.2 -0.2
v 0.1 0.3 -0.2
v 0.5 0 -0.2
v 0.5 0.1 -0.2
v 0.6 0 -0.2
v 0.6 0.1 -0.2
v -0.5 0 -0.3
v -0.5 0.1 -0.3
v -0.4 0 -0.3
v -0.4 0.1 -0.3
v -0.1 0 -0.3
v -0.1 0.1 -0.3
v -0.1 0.2 -0.3
v -0.1 0.3 -0.3
v -5.96046e-08 0 -0.3
v -5.96046e-08 0.1 -0.3
v -5.96046e-08 0.2 -0.3
v -5.96046e-08 0.3 -0.3
v 0.4 0 -0.3
v 0.4 0.1 -0.3
v 0.5 0 -0.3
v 0.5 0.1 -0.3
v -0.4 0.1 -0.4
v -0.4 0.2 -0.4
v -0.2 0.1 -0.4
v -0.2 0.2 -0.4
v -0.2 0.3 -0.4
v -0.1 0.2 -0.4
v -0.1 0.3 -0.4
v -5.96046e-08 0 -0.4
v -5.96046e-08 0.1 -0.4
v 0.4 0 -0.4
v 0.4 0.1 -0.4
v -5.96046e-08 0 0.4
v 0.4 0 0.4
v -0.5 0 0.3
v -0.4 0 0.3
v -0.1 0 0.3
v -5.96046e-08 0 0.3
v 0.1 0 0.3
v 0.3 0 0.3
v 0.4 0 0.3
v 0.5 0 0.3
v -0.6 0 0.2
v -0.5 0 0.2
v -0.4 0 0.2
v -0.2 0 0.2
v -0.1 0 0.2
v -5.96046e-08 0 0.2
v 0.1 0 0.2
v 0.2 0 0.2
v 0.3 0 0.2
v 0.4 0 0.2
v 0.5 0 0.2
v 0.6 0 0.2
v -5.96046e-08 0 0.1
v 0.1 0 0.1
v 0.2 0 0.1
v 0.3 0 0.1
v 0.4 0 0.1
v 0.5 0 0.1
v -5.96046e-08 0 -0.1
v 0.3 0 -0.1
v 0.4 0 -0.1
v -0.6 0 -0.2
v -0.5 0 -0.2
v -0.4 0 -0.2
v -0.2 0 -0.2
v -0.1 0 -0.2
v -5.96046e-08 0 -0.2
v 0.1 0 -0.2
v 0.3 0 -0.2
v 0.5 0 -0.2
v 0.6 0 -0.2
v -0.5 0 -0.3
v -0.4 0 -0.3
v -0.1 0 -0.3
v -5.96046e-08 0 -0.3
v 0.1 0 -0.3
v 0.3 0 -0.3
v 0.4 0 -0.3
v 0.5 0 -0.3
v -5.96046e-08 0 -0.4
v 0.4 0 -0.4
v -0.4 0.1 0.4
v -0.2 0.1 0.4
v -0.4 0.1 0.3
v -0.2 0.1 0.3
v -0.4 0.1 0.2
v -0.3 0.1 0.2
v -0.2 0.1 0.2
v -0.4 0.1 0.1
v -0.3 0.1 0.1
v -0.2 0.1 0.1
v -0.3 0.1 -0.1
v -0.2 0.1 -0.1
v -0.4 0.1 -0.2
v -0.2 0.1 -0.2
v -0.4 0.1 -0.3
v -0.2 0.1 -0.3
v -0.4 0.1 -0.4
v -0.2 0.1 -0.4
v -0.2 0.2 0.4
v -0.1 0.2 0.4
v -0.2 0.2 0.3
v -0.1 0.2 0.3
v -5.96046e-08 0.2 0.3
v -0.2 0.2 0.2
v -0.1 0.2 0.2
v -5.96046e-08 0.2 0.2
v 0.1 0.2 0.2
v -0.2 0.2 0.1
v -0.1 0.2 0.1
v -5.96046e-08 0.2 0.1
v -0.2 0.2 0
v -0.1 0.2 0
v -0.2 0.2 -0.1
v -5.96046e-08 0.2 -0.1
v -0.2 0.2 -0.2
v -5.96046e-08 0.2 -0.2
v 0.1 0.2 -0.2
v -0.2 0.2 -0.3
v -0.1 0.2 -0.3
v -5.96046e-08 0.2 -0.3
v -0.2 0.2 -0.4
v -0.1 0.2 -0.4
v -5.96046e-08 0.1 0.4
v 0.4 0.1 0.4
v -0.5 0.1 0.3
v -0.4 0.1 0.3
v -0.1 0.1 0.3
v -5.96046e-08 0.1 0.3
v 0.1 0.1 0.3
v 0.3 0.1 0.3
v 0.4 0.1 0.3
v 0.5 0.1 0.3
v -0.6 0.1 0.2
v -0.5 0.1 0.2
v -0.4 0.1 0.2
v -0.2 0.1 0.2
v -0.1 0.1 0.2
v -5.96046e-08 0.1 0.2
v 0.1 0.1 0.2
v 0.2 0.1 0.2
v 0.3 0.1 0.2
v 0.4 0.1 0.2
v 0.5 0.1 0.2
v 0.6 0.1 0.2
v -0.4 0.1 0.1
v -0.2 0.1 0.1
v -5.96046e-08 0.1 0.1
v 0.1 0.1 0.1
v 0.2 0.1 0.1
v 0.3 0.1 0.1
v 0.4 0.1 0.1
v 0.5 0.1 0.1
v -0.2 0.1 -0.1
v -5.96046e-08 0.1 -0.1
v 0.3 0.1 -0.1
v 0.4 0.1 -0.1
v -0.6 0.1 -0.2
v -0.5 0.1 -0.2
v -0.4 0.1 -0.2
v -0.2 0.1 -0.2
v -0.1 0.1 -0.2
v -5.96046e-08 0.1 -0.2
v 0.1 0.1 -0.2
v 0.3 0.1 -0.2
v 0.5 0.1 -0.2
v 0.6 0.1 -0.2
v -0.5 0.1 -0.3
v -0.4 0.1 -0.3
v -0.1 0.1 -0.3
v -5.96046e-08 0.1 -0.3
v 0.1 0.1 -0.3
v 0.3 0.1 -0.3
v 0.4 0.1 -0.3
v 0.5 0.1 -0.3
v -5.96046e-08 0.1 -0.4
v 0.4 0.1 -0.4
v -0.4 0.2 0.4
v -0.2 0.2 0.4
v -0.4 0.2 0.3
v -0.2 0.2 0.3
v -0.3 0.2 0.2
v -0.2 0.2 0.2
v -0.4 0.2 0.1
v -0.3 0.2 0.1
v -0.2 0.2 0.1
v -0.2 0.2 0
v -0.3 0.2 -0.1
v -0.2 0.2 -0.1
v -0.4 0.2 -0.2
v -0.2 0.2 -0.2
v -0.4 0.2 -0.3
v -0.2 0.2 -0.3
v -0.4 0.2 -0.4
v -0.2 0.2 -0.4
v -0.2 0.3 0.4
v -0.1 0.3 0.4
v -0.2 0.3 0.3
v -0.1 0.3 0.3
v -5.96046e-08 0.3 0.3
v -0.2 0.3 0.2
v -0.1 0.3 0.2
v -5.96046e-08 0.3 0.2
v 0.1 0.3 0.2
v -0.2 0.3 0.1
v -0.1 0.3 0.1
v -5.96046e-08 0.3 0.1
v -0.2 0.3 0
v -0.1 0.3 0
v -0.2 0.3 -0.1
v -5.96046e-08 0.3 -0.1
v -0.2 0.3 -0.2
v -5.96046e-08 0.3 -0.2
v 0.1 0.3 -0.2
v -0.1 0.3 -0.3
v -5.96046e-08 0.3 -0.3
v -0.2 0.3 -0.4
v -0.1 0.3 -0.4

# faces
f 3/4/1 2/4/1 1/4/1
f 4/4/1 2/4/1 3/4/1
f 9/4/1 6/4/1 5/4/1
f 10/4/1 6/4/1 9/4/1
f 11/4/1 8/4/1 7/4/1
f 12/4/1 8/4/1 11/4/1
f 20/4/1 14/4/1 13/4/1
f 21/3/1 15/3/1 14/3/1
f 21/4/1 14/4/1 20/4/1
f 21/3/1 16/3/1 15/3/1
f 22/2/1 17/2/1 16/2/1
f 22/3/1 16/3/1 21/3/1
f 23/3/1 18/3/1 17/3/1
f 23/2/1 17/2/1 22/2/1
f 24/4/1 19/4/1 18/4/1
f 24/3/1 18/3/1 23/3/1
f 25/4/1 19/4/1 24/4/1
f 28/4/1 27/4/1 26/4/1
f 29/4/1 27/4/1 28/4/1
f 30/4/1 27/4/1 29/4/1
f 31/4/1 27/4/1 30/4/1
f 41/4/1 33/4/1 32/4/1
f 42/3/1 34/3/1 33/3/1
f 42/4/1 33/4/1 41/4/1
f 43/2/1 35/2/1 34/2/1
f 43/3/1 34/3/1 42/3/1
f 44/1/1 36/1/1 35/1/1
f 44/2/1 35/2/1 43/2/1
f 45/2/1 37/2/1 36/2/1
f 45/1/1 36/1/1 44/1/1
f 46/3/1 38/3/1 37/3/1
f 46/2/1 37/2/1 45/2/1
f 47/4/1 40/4/1 39/4/1
f 47/3/1 38/3/1 46/3/1
f 47/4/1 39/4/1 38/4/1
f 48/4/1 40/4/1 47/4/1
f 53/4/1 50/4/1 49/4/1
f 54/4/1 50/4/1 53/4/1
f 55/4/1 52/4/1 51/4/1
f 56/4/1 52/4/1 55/4/1
f 61/4/1 58/4/1 57/4/1
f 62/4/1 58/4/1 61/4/1
f 63/4/1 60/4/1 59/4/1
f 64/4/1 60/4/1 63/4/1
f 65/4/2 66/4/2 69/4/2
f 66/3/2 67/3/2 70/3/2
f 69/4/2 66/4/2 70/4/2
f 70/3/2 67/3/2 71/3/2
f 67/4/2 68/4/2 72/4/2
f 71/3/2 67/3/2 72/3/2
f 72/4/2 68/4/2 73/4/2
f 74/4/2 75/4/2 82/4/2
f 75/3/2 76/3/2 83/3/2
f 82/4/2 75/4/2 83/4/2
f 76/2/2 77/2/2 84/2/2
f 83/3/2 76/3/2 84/3/2
f 77/1/2 78/1/2 85/1/2
f 84/2/2 77/2/2 85/2/2
f 85/1/2 78/1/2 86/1/2
f 78/2/2 79/2/2 87/2/2
f 86/1/2 78/1/2 87/1/2
f 79/3/2 80/3/2 88/3/2
f 87/2/2 79/2/2 88/2/2
f 80/4/2 81/4/2 89/4/2
f 88/3/2 80/3/2 89/3/2
f 89/4/2 81/4/2 90/4/2
f 91/4/2 92/4/2 95/4/2
f 95/4/2 92/4/2 96/4/2
f 93/4/2 94/4/2 97/4/2
f 97/4/2 94/4/2 98/4/2
f 99/4/2 100/4/2 103/4/2
f 103/4/2 100/4/2 104/4/2
f 101/4/2 102/4/2 105/4/2
f 105/4/2 102/4/2 106/4/2
f 107/4/2 108/4/2 109/4/2
f 109/4/2 108/4/2 110/4/2
f 111/4/2 112/4/2 115/4/2
f 115/4/2 112/4/2 116/4/2
f 113/4/2 114/4/2 117/4/2
f 117/4/2 114/4/2 118/4/2
f 119/4/2 120/4/2 123/4/2
f 123/4/2 120/4/2 124/4/2
f 121/4/2 122/4/2 125/4/2
f 125/4/2 122/4/2 126/4/2
f 127/4/2 128/4/2 129/4/2
f 129/4/2 128/4/2 130/4/2
f 133/4/3 132/4/3 131/4/3
f 134/4/3 132/4/3 133/4/3
f 136/4/3 135/4/3 134/4/3
f 137/4/3 135/4/3 136/4/3
f 140/4/3 139/4/3 138/4/3
f 141/4/3 139/4/3 140/4/3
f 144/4/3 143/4/3 142/4/3
f 145/4/3 143/4/3 144/4/3
f 150/4/3 147/4/3 146/4/3
f 151/4/3 147/4/3 150/4/3
f 152/4/3 149/4/3 148/4/3
f 153/4/3 149/4/3 152/4/3
f 156/4/3 155/4/3 154/4/3
f 157/4/3 155/4/3 156/4/3
f 160/4/3 159/4/3 158/4/3
f 161/4/3 159/4/3 160/4/3
f 164/4/3 163/4/3 162/4/3
f 165/4/3 163/4/3 164/4/3
f 168/4/3 167/4/3 166/4/3
f 169/4/3 167/4/3 168/4/3
f 172/4/3 171/4/3 170/4/3
f 173/4/3 171/4/3 172/4/3
f 174/4/4 175/4/4 176/4/4
f 176/4/4 175/4/4 177/4/4
f 178/4/4 179/4/4 180/4/4
f 180/4/4 179/4/4 181/4/4
f 182/4/4 183/4/4 184/4/4
f 184/4/4 183/4/4 185/4/4
f 186/4/4 187/4/4 188/4/4
f 188/4/4 187/4/4 189/4/4
f 190/4/4 191/4/4 192/4/4
f 192/4/4 191/4/4 193/4/4
f 194/4/4 195/4/4 198/4/4
f 198/4/4 195/4/4 199/4/4
f 196/4/4 197/4/4 200/4/4
f 200/4/4 197/4/4 201/4/4
f 202/4/4 203/4/4 204/4/4
f 204/4/4 203/4/4 205/4/4
f 206/4/4 207/4/4 208/4/4
f 208/4/4 207/4/4 209/4/4
f 209/4/4 210/4/4 211/4/4
f 211/4/4 210/4/4 212/4/4
f 213/4/4 214/4/4 215/4/4
f 215/4/4 214/4/4 216/4/4
f 222/4/5 218/4/5 217/4/5
f 223/4/5 218/4/5 222/4/5
f 224/4/5 218/4/5 223/4/5
f 225/4/5 218/4/5 224/4/5
f 228/4/5 220/4/5 219/4/5
f 229/4/5 220/4/5 228/4/5
f 231/4/5 222/4/5 221/4/5
f 232/3/5 223/3/5 222/3/5
f 232/4/5 222/4/5 231/4/5
f 233/2/5 224/2/5 223/2/5
f 233/3/5 223/3/5 232/3/5
f 234/2/5 224/2/5 233/2/5
f 235/3/5 225/3/5 224/3/5
f 235/2/5 224/2/5 234/2/5
f 236/4/5 226/4/5 225/4/5
f 236/3/5 225/3/5 235/3/5
f 237/4/5 226/4/5 236/4/5
f 239/3/5 232/3/5 231/3/5
f 239/2/5 233/2/5 232/2/5
f 240/1/5 234/1/5 233/1/5
f 240/2/5 233/2/5 239/2/5
f 241/2/5 235/2/5 234/2/5
f 241/1/5 234/1/5 240/1/5
f 241/2/5 236/2/5 235/2/5
f 242/2/5 236/2/5 241/2/5
f 243/4/5 238/4/5 237/4/5
f 243/2/5 236/2/5 242/2/5
f 243/4/5 237/4/5 236/4/5
f 244/4/5 238/4/5 243/4/5
f 245/1/5 240/1/5 239/1/5
f 245/1/5 242/1/5 241/1/5
f 245/3/5 239/3/5 231/3/5
f 245/1/5 241/1/5 240/1/5
f 246/2/5 243/2/5 242/2/5
f 246/1/5 242/1/5 245/1/5
f 247/3/5 244/3/5 243/3/5
f 247/2/5 243/2/5 246/2/5
f 248/4/5 228/4/5 227/4/5
f 249/3/5 229/3/5 228/3/5
f 249/4/5 228/4/5 248/4/5
f 250/3/5 229/3/5 249/3/5
f 251/4/5 231/4/5 230/4/5
f 252/3/5 245/3/5 231/3/5
f 252/4/5 231/4/5 251/4/5
f 253/2/5 246/2/5 245/2/5
f 253/3/5 245/3/5 252/3/5
f 254/2/5 246/2/5 253/2/5
f 255/3/5 247/3/5 246/3/5
f 255/2/5 246/2/5 254/2/5
f 256/4/5 238/4/5 244/4/5
f 256/3/5 247/3/5 255/3/5
f 256/3/5 244/3/5 247/3/5
f 257/4/5 238/4/5 256/4/5
f 258/4/5 250/4/5 249/4/5
f 259/4/5 250/4/5 258/4/5
f 260/4/5 253/4/5 252/4/5
f 260/4/5 254/4/5 253/4/5
f 261/4/5 254/4/5 260/4/5
f 262/3/5 255/3/5 254/3/5
f 262/4/5 254/4/5 261/4/5
f 263/4/5 256/4/5 255/4/5
f 263/3/5 255/3/5 262/3/5
f 264/4/5 256/4/5 263/4/5
f 265/4/5 256/4/5 264/4/5
f 266/4/5 262/4/5 261/4/5
f 266/4/5 264/4/5 263/4/5
f 266/4/5 263/4/5 262/4/5
f 267/4/5 264/4/5 266/4/5
f 270/4/5 269/4/5 268/4/5
f 271/4/5 269/4/5 270/4/5
f 272/3/5 271/3/5 270/3/5
f 273/3/5 271/3/5 272/3/5
f 274/3/5 271/3/5 273/3/5
f 275/3/5 273/3/5 272/3/5
f 276/2/5 274/2/5 273/2/5
f 276/3/5 273/3/5 275/3/5
f 277/2/5 274/2/5 276/2/5
f 278/2/5 276/2/5 275/2/5
f 278/1/5 277/1/5 276/1/5
f 279/1/5 277/1/5 278/1/5
f 280/2/5 278/2/5 275/2/5
f 280/2/5 279/2/5 278/2/5
f 281/2/5 279/2/5 280/2/5
f 282/3/5 281/3/5 280/3/5
f 283/3/5 281/3/5 282/3/5
f 284/4/5 283/4/5 282/4/5
f 285/4/5 283/4/5 284/4/5
f 288/4/5 287/4/5 286/4/5
f 289/4/5 287/4/5 288/4/5
f 291/3/5 289/3/5 288/3/5
f 292/4/5 290/4/5 289/4/5
f 292/3/5 289/3/5 291/3/5
f 293/4/5 290/4/5 292/4/5
f 295/2/5 292/2/5 291/2/5
f 296/3/5 293/3/5 292/3/5
f 296/2/5 292/2/5 295/2/5
f 297/4/5 294/4/5 293/4/5
f 297/3/5 293/3/5 296/3/5
f 298/1/5 296/1/5 295/1/5
f 299/2/5 297/2/5 296/2/5
f 299/1/5 296/1/5 298/1/5
f 300/2/5 299/2/5 298/2/5
f 301/4/5 294/4/5 297/4/5
f 301/2/5 299/2/5 300/2/5
f 301/2/5 297/2/5 299/2/5
f 302/3/5 301/3/5 300/3/5
f 303/4/5 294/4/5 301/4/5
f 303/3/5 301/3/5 302/3/5
f 304/4/5 294/4/5 303/4/5
f 305/4/5 303/4/5 302/4/5
f 306/4/5 303/4/5 305/4/5
f 307/4/5 303/4/5 306/4/5
f 308/4/5 306/4/5 305/4/5
f 309/4/5 306/4/5 308/4/5
f 310/4/6 311/4/6 315/4/6
f 315/4/6 311/4/6 316/4/6
f 316/4/6 311/4/6 317/4/6
f 317/4/6 311/4/6 318/4/6
f 312/4/6 313/4/6 321/4/6
f 321/4/6 313/4/6 322/4/6
f 314/4/6 315/4/6 324/4/6
f 315/3/6 316/3/6 325/3/6
f 324/4/6 315/4/6 325/4/6
f 316/2/6 317/2/6 326/2/6
f 325/3/6 316/3/6 326/3/6
f 326/2/6 317/2/6 327/2/6
f 317/3/6 318/3/6 328/3/6
f 327/2/6 317/2/6 328/2/6
f 318/4/6 319/4/6 329/4/6
f 328/3/6 318/3/6 329/3/6
f 329/4/6 319/4/6 330/4/6
f 321/3/6 322/3/6 332/3/6
f 323/4/6 324/4/6 333/4/6
f 324/3/6 325/3/6 334/3/6
f 325/2/6 326/2/6 334/2/6
f 326/1/6 327/1/6 335/1/6
f 334/2/6 326/2/6 335/2/6
f 327/2/6 328/2/6 336/2/6
f 335/1/6 327/1/6 336/1/6
f 328/2/6 329/2/6 336/2/6
f 336/2/6 329/2/6 337/2/6
f 330/4/6 331/4/6 338/4/6
f 337/2/6 329/2/6 338/2/6
f 329/4/6 330/4/6 338/4/6
f 338/4/6 331/4/6 339/4/6
f 333/4/6 324/4/6 340/4/6
f 334/1/6 335/1/6 341/1/6
f 336/1/6 337/1/6 341/1/6
f 324/3/6 334/3/6 341/3/6
f 335/1/6 336/1/6 341/1/6
f 337/2/6 338/2/6 342/2/6
f 341/1/6 337/1/6 342/1/6
f 338/3/6 339/3/6 343/3/6
f 342/2/6 338/2/6 343/2/6
f 320/4/6 321/4/6 344/4/6
f 321/3/6 332/3/6 345/3/6
f 344/4/6 321/4/6 345/4/6
f 345/3/6 332/3/6 346/3/6
f 340/4/6 324/4/6 347/4/6
f 324/3/6 341/3/6 348/3/6
f 347/4/6 324/4/6 348/4/6
f 341/2/6 342/2/6 349/2/6
f 348/3/6 341/3/6 349/3/6
f 349/2/6 342/2/6 350/2/6
f 342/3/6 343/3/6 351/3/6
f 350/2/6 342/2/6 351/2/6
f 339/4/6 331/4/6 352/4/6
f 351/3/6 343/3/6 352/3/6
f 343/3/6 339/3/6 352/3/6
f 352/4/6 331/4/6 353/4/6
f 345/4/6 346/4/6 354/4/6
f 354/4/6 346/4/6 355/4/6
f 348/4/6 349/4/6 356/4/6
f 349/4/6 350/4/6 356/4/6
f 356/4/6 350/4/6 357/4/6
f 350/3/6 351/3/6 358/3/6
f 357/4/6 350/4/6 358/4/6
f 351/4/6 352/4/6 359/4/6
f 358/3/6 351/3/6 359/3/6
f 359/4/6 352/4/6 360/4/6
f 360/4/6 352/4/6 361/4/6
f 357/4/6 358/4/6 362/4/6
f 359/4/6 360/4/6 362/4/6
f 358/4/6 359/4/6 362/4/6
f 362/4/6 360/4/6 363/4/6
f 364/4/6 365/4/6 366/4/6
f 366/4/6 365/4/6 367/4/6
f 366/3/6 367/3/6 368/3/6
f 368/3/6 367/3/6 369/3/6
f 366/3/6 368/3/6 370/3/6
f 368/2/6 369/2/6 371/2/6
f 370/3/6 368/3/6 371/3/6
f 371/2/6 369/2/6 372/2/6
f 371/1/6 372/1/6 373/1/6
f 370/2/6 371/2/6 374/2/6
f 371/1/6 373/1/6 374/1/6
f 374/1/6 373/1/6 375/1/6
f 370/2/6 374/2/6 376/2/6
f 374/2/6 375/2/6 376/2/6
f 376/2/6 375/2/6 377/2/6
f 376/3/6 377/3/6 378/3/6
f 378/3/6 377/3/6 379/3/6
f 378/4/6 379/4/6 380/4/6
f 380/4/6 379/4/6 381/4/6
f 382/4/6 383/4/6 384/4/6
f 384/4/6 383/4/6 385/4/6
f 384/3/6 385/3/6 387/3/6
f 385/4/6 386/4/6 388/4/6
f 387/3/6 385/3/6 388/3/6
f 388/4/6 386/4/6 389/4/6
f 387/2/6 388/2/6 391/2/6
f 388/3/6 389/3/6 392/3/6
f 391/2/6 388/2/6 392/2/6
f 389/4/6 390/4/6 393/4/6
f 392/3/6 389/3/6 393/3/6
f 391/1/6 392/1/6 394/1/6
f 392/2/6 393/2/6 395/2/6
f 394/1/6 392/1/6 395/1/6
f 394/2/6 395/2/6 396/2/6
f 393/4/6 390/4/6 397/4/6
f 396/2/6 395/2/6 397/2/6
f 395/2/6 393/2/6 397/2/6
f 396/3/6 397/3/6 398/3/6
f 397/4/6 390/4/6 399/4/6
f 398/3/6 397/3/6 399/3/6
f 399/4/6 390/4/6 400/4/6
f 398/4/6 399/4/6 401/4/6
f 401/4/6 399/4/6 402/4/6
f 398/4/6 401/4/6 403/4/6
f 403/4/6 401/4/6 404/4/6
