# MagicaVoxel @ Ephtracy

# group
o 

# material
mtllib 6_On_Dish.mtl
usemtl palette

# normals
vn -1 0 0
vn 1 0 0
vn 0 0 1
vn 0 0 -1
vn 0 -1 0
vn 0 1 0

# texcoords
vt 0.0332031 0.5
vt 0.0371094 0.5
vt 0.0410156 0.5

# verts
v -0.4 0 0.3
v -0.4 0 -0.4
v -0.4 0.1 0.3
v -0.4 0.1 -0.4
v -0.4 0.2 0.3
v -0.4 0.2 -0.4
v -0.3 0 0.4
v -0.3 0 0.3
v -0.3 0 -0.4
v -0.3 0 -0.5
v -0.3 0.1 0.4
v -0.3 0.1 0.3
v -0.3 0.1 -0.4
v -0.3 0.1 -0.5
v -0.3 0.2 0.4
v -0.3 0.2 0.3
v -0.3 0.2 -0.4
v -0.3 0.2 -0.5
v 0.4 0 0.4
v 0.4 0 0.3
v 0.4 0 -0.4
v 0.4 0 -0.5
v 0.4 0.1 0.4
v 0.4 0.1 0.3
v 0.4 0.1 -0.4
v 0.4 0.1 -0.5
v 0.4 0.2 0.4
v 0.4 0.2 0.3
v 0.4 0.2 -0.4
v 0.4 0.2 -0.5
v 0.5 0 0.3
v 0.5 0 -0.4
v 0.5 0.1 0.3
v 0.5 0.1 -0.4
v 0.5 0.2 0.3
v 0.5 0.2 -0.4
v -0.3 0 0.4
v -0.3 0.1 0.4
v -0.3 0.2 0.4
v 0.4 0 0.4
v 0.4 0.1 0.4
v 0.4 0.2 0.4
v -0.4 0 0.3
v -0.4 0.1 0.3
v -0.4 0.2 0.3
v -0.3 0 0.3
v -0.3 0.1 0.3
v -0.3 0.2 0.3
v 0.4 0 0.3
v 0.4 0.1 0.3
v 0.4 0.2 0.3
v 0.5 0 0.3
v 0.5 0.1 0.3
v 0.5 0.2 0.3
v -0.4 0 -0.4
v -0.4 0.1 -0.4
v -0.4 0.2 -0.4
v -0.3 0 -0.4
v -0.3 0.1 -0.4
v -0.3 0.2 -0.4
v 0.4 0 -0.4
v 0.4 0.1 -0.4
v 0.4 0.2 -0.4
v 0.5 0 -0.4
v 0.5 0.1 -0.4
v 0.5 0.2 -0.4
v -0.3 0 -0.5
v -0.3 0.1 -0.5
v -0.3 0.2 -0.5
v 0.4 0 -0.5
v 0.4 0.1 -0.5
v 0.4 0.2 -0.5
v -0.3 0 0.4
v 0.4 0 0.4
v -0.4 0 0.3
v -0.3 0 0.3
v 0.4 0 0.3
v 0.5 0 0.3
v -0.4 0 -0.4
v -0.3 0 -0.4
v 0.4 0 -0.4
v 0.5 0 -0.4
v -0.3 0 -0.5
v 0.4 0 -0.5
v -0.3 0.2 0.4
v 0.4 0.2 0.4
v -0.4 0.2 0.3
v -0.3 0.2 0.3
v 0.4 0.2 0.3
v 0.5 0.2 0.3
v -0.2 0.2 0.2
v 0.3 0.2 0.2
v -0.1 0.2 0.1
v 0.2 0.2 0.1
v 0 0.2 0
v 0.1 0.2 0
v 0 0.2 -0.1
v 0.1 0.2 -0.1
v -0.1 0.2 -0.2
v 0.2 0.2 -0.2
v -0.2 0.2 -0.3
v 0.3 0.2 -0.3
v -0.4 0.2 -0.4
v -0.3 0.2 -0.4
v 0.4 0.2 -0.4
v 0.5 0.2 -0.4
v -0.3 0.2 -0.5
v 0.4 0.2 -0.5

# faces
f 3/2/1 2/2/1 1/2/1
f 4/2/1 2/2/1 3/2/1
f 5/1/1 4/1/1 3/1/1
f 6/1/1 4/1/1 5/1/1
f 11/2/1 8/2/1 7/2/1
f 12/2/1 8/2/1 11/2/1
f 13/2/1 10/2/1 9/2/1
f 14/2/1 10/2/1 13/2/1
f 15/1/1 12/1/1 11/1/1
f 16/1/1 12/1/1 15/1/1
f 17/1/1 14/1/1 13/1/1
f 18/1/1 14/1/1 17/1/1
f 19/2/2 20/2/2 23/2/2
f 23/2/2 20/2/2 24/2/2
f 21/2/2 22/2/2 25/2/2
f 25/2/2 22/2/2 26/2/2
f 23/1/2 24/1/2 27/1/2
f 27/1/2 24/1/2 28/1/2
f 25/1/2 26/1/2 29/1/2
f 29/1/2 26/1/2 30/1/2
f 31/2/2 32/2/2 33/2/2
f 33/2/2 32/2/2 34/2/2
f 33/1/2 34/1/2 35/1/2
f 35/1/2 34/1/2 36/1/2
f 40/2/3 38/2/3 37/2/3
f 41/1/3 39/1/3 38/1/3
f 41/2/3 38/2/3 40/2/3
f 42/1/3 39/1/3 41/1/3
f 46/2/3 44/2/3 43/2/3
f 47/1/3 45/1/3 44/1/3
f 47/2/3 44/2/3 46/2/3
f 48/1/3 45/1/3 47/1/3
f 52/2/3 50/2/3 49/2/3
f 53/1/3 51/1/3 50/1/3
f 53/2/3 50/2/3 52/2/3
f 54/1/3 51/1/3 53/1/3
f 55/2/4 56/2/4 58/2/4
f 56/1/4 57/1/4 59/1/4
f 58/2/4 56/2/4 59/2/4
f 59/1/4 57/1/4 60/1/4
f 61/2/4 62/2/4 64/2/4
f 62/1/4 63/1/4 65/1/4
f 64/2/4 62/2/4 65/2/4
f 65/1/4 63/1/4 66/1/4
f 67/2/4 68/2/4 70/2/4
f 68/1/4 69/1/4 71/1/4
f 70/2/4 68/2/4 71/2/4
f 71/1/4 69/1/4 72/1/4
f 76/2/5 74/2/5 73/2/5
f 77/2/5 74/2/5 76/2/5
f 79/2/5 76/2/5 75/2/5
f 79/2/5 78/2/5 77/2/5
f 79/2/5 77/2/5 76/2/5
f 80/2/5 78/2/5 79/2/5
f 81/2/5 78/2/5 80/2/5
f 82/2/5 78/2/5 81/2/5
f 83/2/5 81/2/5 80/2/5
f 84/2/5 81/2/5 83/2/5
f 85/1/6 86/1/6 88/1/6
f 88/1/6 86/1/6 89/1/6
f 88/3/6 89/3/6 91/3/6
f 91/3/6 89/3/6 92/3/6
f 91/1/6 92/1/6 93/1/6
f 93/1/6 92/1/6 94/1/6
f 93/3/6 94/3/6 95/3/6
f 95/3/6 94/3/6 96/3/6
f 93/3/6 95/3/6 97/3/6
f 95/1/6 96/1/6 97/1/6
f 96/3/6 94/3/6 98/3/6
f 97/1/6 96/1/6 98/1/6
f 91/1/6 93/1/6 99/1/6
f 93/3/6 97/3/6 99/3/6
f 97/3/6 98/3/6 99/3/6
f 98/3/6 94/3/6 100/3/6
f 99/3/6 98/3/6 100/3/6
f 94/1/6 92/1/6 100/1/6
f 88/3/6 91/3/6 101/3/6
f 91/1/6 99/1/6 101/1/6
f 99/1/6 100/1/6 101/1/6
f 100/1/6 92/1/6 102/1/6
f 101/1/6 100/1/6 102/1/6
f 92/3/6 89/3/6 102/3/6
f 87/1/6 88/1/6 103/1/6
f 88/3/6 101/3/6 104/3/6
f 103/1/6 88/1/6 104/1/6
f 101/3/6 102/3/6 104/3/6
f 102/3/6 89/3/6 105/3/6
f 104/3/6 102/3/6 105/3/6
f 89/1/6 90/1/6 105/1/6
f 105/1/6 90/1/6 106/1/6
f 104/1/6 105/1/6 107/1/6
f 107/1/6 105/1/6 108/1/6
