# MagicaVoxel @ Ephtracy

# group
o 

# material
mtllib Table.mtl
usemtl palette

# normals
vn -1 0 0
vn 1 0 0
vn 0 0 1
vn 0 0 -1
vn 0 -1 0
vn 0 1 0

# texcoords
vt 0.00195312 0.5
vt 0.0175781 0.5
vt 0.0214844 0.5
vt 0.0332031 0.5

# verts
v -1.5 1.5 1.4
v -1.5 1.5 -1.4
v -1.5 1.8 1.4
v -1.5 1.8 -1.4
v -1.4 1.5 1.5
v -1.4 1.5 1.4
v -1.4 1.5 -1.4
v -1.4 1.5 -1.5
v -1.4 1.8 1.5
v -1.4 1.8 1.4
v -1.4 1.8 -1.4
v -1.4 1.8 -1.5
v -1.3 0 1.3
v -1.3 0 -1.3
v -1.3 0.2 1.3
v -1.3 0.2 -1.3
v -1.3 1.5 1.3
v -1.3 1.5 -1.3
v 1.3 0 1.3
v 1.3 0 -1.3
v 1.3 0.2 1.3
v 1.3 0.2 -1.3
v 1.3 1.5 1.3
v 1.3 1.5 -1.3
v 1.4 1.5 1.5
v 1.4 1.5 1.4
v 1.4 1.5 -1.4
v 1.4 1.5 -1.5
v 1.4 1.8 1.5
v 1.4 1.8 1.4
v 1.4 1.8 -1.4
v 1.4 1.8 -1.5
v 1.5 1.5 1.4
v 1.5 1.5 -1.4
v 1.5 1.8 1.4
v 1.5 1.8 -1.4
v -1.4 1.5 1.5
v -1.4 1.8 1.5
v 1.4 1.5 1.5
v 1.4 1.8 1.5
v -1.5 1.5 1.4
v -1.5 1.8 1.4
v -1.4 1.5 1.4
v -1.4 1.8 1.4
v 1.4 1.5 1.4
v 1.4 1.8 1.4
v 1.5 1.5 1.4
v 1.5 1.8 1.4
v -1.3 0 1.3
v -1.3 0.2 1.3
v -1.3 1.5 1.3
v 1.3 0 1.3
v 1.3 0.2 1.3
v 1.3 1.5 1.3
v -1.3 0 -1.3
v -1.3 0.2 -1.3
v -1.3 1.5 -1.3
v 1.3 0 -1.3
v 1.3 0.2 -1.3
v 1.3 1.5 -1.3
v -1.5 1.5 -1.4
v -1.5 1.8 -1.4
v -1.4 1.5 -1.4
v -1.4 1.8 -1.4
v 1.4 1.5 -1.4
v 1.4 1.8 -1.4
v 1.5 1.5 -1.4
v 1.5 1.8 -1.4
v -1.4 1.5 -1.5
v -1.4 1.8 -1.5
v 1.4 1.5 -1.5
v 1.4 1.8 -1.5
v -1.3 0 1.3
v 1.3 0 1.3
v -1.3 0 -1.3
v 1.3 0 -1.3
v -1.4 1.5 1.5
v 1.4 1.5 1.5
v -1.5 1.5 1.4
v -1.4 1.5 1.4
v 1.4 1.5 1.4
v 1.5 1.5 1.4
v -1.3 1.5 1.3
v 1.3 1.5 1.3
v -1.3 1.5 -1.3
v 1.3 1.5 -1.3
v -1.5 1.5 -1.4
v -1.4 1.5 -1.4
v 1.4 1.5 -1.4
v 1.5 1.5 -1.4
v -1.4 1.5 -1.5
v 1.4 1.5 -1.5
v -1.4 1.8 1.5
v 1.4 1.8 1.5
v -1.5 1.8 1.4
v -1.4 1.8 1.4
v 1.4 1.8 1.4
v 1.5 1.8 1.4
v -1.5 1.8 -1.4
v -1.4 1.8 -1.4
v 1.4 1.8 -1.4
v 1.5 1.8 -1.4
v -1.4 1.8 -1.5
v 1.4 1.8 -1.5

# faces
f 3/2/1 2/2/1 1/2/1
f 4/2/1 2/2/1 3/2/1
f 9/2/1 6/2/1 5/2/1
f 10/2/1 6/2/1 9/2/1
f 11/2/1 8/2/1 7/2/1
f 12/2/1 8/2/1 11/2/1
f 15/4/1 14/4/1 13/4/1
f 16/4/1 14/4/1 15/4/1
f 17/1/1 16/1/1 15/1/1
f 18/1/1 16/1/1 17/1/1
f 19/4/2 20/4/2 21/4/2
f 21/4/2 20/4/2 22/4/2
f 21/1/2 22/1/2 23/1/2
f 23/1/2 22/1/2 24/1/2
f 25/2/2 26/2/2 29/2/2
f 29/2/2 26/2/2 30/2/2
f 27/2/2 28/2/2 31/2/2
f 31/2/2 28/2/2 32/2/2
f 33/2/2 34/2/2 35/2/2
f 35/2/2 34/2/2 36/2/2
f 39/2/3 38/2/3 37/2/3
f 40/2/3 38/2/3 39/2/3
f 43/2/3 42/2/3 41/2/3
f 44/2/3 42/2/3 43/2/3
f 47/2/3 46/2/3 45/2/3
f 48/2/3 46/2/3 47/2/3
f 52/4/3 50/4/3 49/4/3
f 53/1/3 51/1/3 50/1/3
f 53/4/3 50/4/3 52/4/3
f 54/1/3 51/1/3 53/1/3
f 55/4/4 56/4/4 58/4/4
f 56/1/4 57/1/4 59/1/4
f 58/4/4 56/4/4 59/4/4
f 59/1/4 57/1/4 60/1/4
f 61/2/4 62/2/4 63/2/4
f 63/2/4 62/2/4 64/2/4
f 65/2/4 66/2/4 67/2/4
f 67/2/4 66/2/4 68/2/4
f 69/2/4 70/2/4 71/2/4
f 71/2/4 70/2/4 72/2/4
f 75/4/5 74/4/5 73/4/5
f 76/4/5 74/4/5 75/4/5
f 80/2/5 78/2/5 77/2/5
f 81/2/5 78/2/5 80/2/5
f 83/2/5 80/2/5 79/2/5
f 83/2/5 82/2/5 81/2/5
f 83/2/5 81/2/5 80/2/5
f 84/2/5 82/2/5 83/2/5
f 85/2/5 83/2/5 79/2/5
f 86/2/5 82/2/5 84/2/5
f 87/2/5 85/2/5 79/2/5
f 87/2/5 86/2/5 85/2/5
f 88/2/5 86/2/5 87/2/5
f 89/2/5 82/2/5 86/2/5
f 89/2/5 86/2/5 88/2/5
f 90/2/5 82/2/5 89/2/5
f 91/2/5 89/2/5 88/2/5
f 92/2/5 89/2/5 91/2/5
f 93/2/6 94/2/6 96/2/6
f 96/2/6 94/2/6 97/2/6
f 95/2/6 96/2/6 99/2/6
f 96/3/6 97/3/6 100/3/6
f 99/2/6 96/2/6 100/2/6
f 97/2/6 98/2/6 101/2/6
f 100/3/6 97/3/6 101/3/6
f 101/2/6 98/2/6 102/2/6
f 100/2/6 101/2/6 103/2/6
f 103/2/6 101/2/6 104/2/6
