# MagicaVoxel @ Ephtracy

# group
o 

# material
mtllib 1_Sliced.mtl
usemtl palette

# normals
vn -1 0 0
vn 1 0 0
vn 0 0 1
vn 0 0 -1
vn 0 -1 0
vn 0 1 0

# texcoords
vt 0.0332031 0.5
vt 0.0371094 0.5
vt 0.0644531 0.5
vt 0.0683594 0.5

# verts
v -0.6 0 0.2
v -0.6 0 -0.2
v -0.6 0.1 0.2
v -0.6 0.1 -0.2
v -0.5 0 0.3
v -0.5 0 0.2
v -0.5 0 -0.2
v -0.5 0 -0.3
v -0.5 0.1 0.3
v -0.5 0.1 0.2
v -0.5 0.1 -0.2
v -0.5 0.1 -0.3
v -0.4 0.1 0.4
v -0.4 0.1 0.3
v -0.4 0.1 0.2
v -0.4 0.1 0
v -0.4 0.1 -0.2
v -0.4 0.1 -0.3
v -0.4 0.1 -0.4
v -0.4 0.2 0.4
v -0.4 0.2 0.3
v -0.4 0.2 0
v -0.4 0.2 -0.3
v -0.4 0.2 -0.4
v -0.2 0 0.2
v -0.2 0 -0.2
v -0.2 0.1 0.2
v -0.2 0.1 -0.2
v -0.2 0.2 0.4
v -0.2 0.2 0.3
v -0.2 0.2 -0.3
v -0.2 0.2 -0.4
v -0.2 0.3 0.4
v -0.2 0.3 0.3
v -0.2 0.3 -0.3
v -0.2 0.3 -0.4
v -0.1 0 0.3
v -0.1 0 0.2
v -0.1 0 -0.2
v -0.1 0 -0.3
v -0.1 0.1 0.3
v -0.1 0.1 0.2
v -0.1 0.1 -0.2
v -0.1 0.1 -0.3
v -5.96046e-08 0 0.4
v -5.96046e-08 0 0.3
v -5.96046e-08 0 -0.3
v -5.96046e-08 0 -0.4
v -5.96046e-08 0.1 0.4
v -5.96046e-08 0.1 0.3
v -5.96046e-08 0.1 -0.3
v -5.96046e-08 0.1 -0.4
v -0.4 0 0.3
v -0.4 0 0.2
v -0.4 0 -0.2
v -0.4 0 -0.3
v -0.4 0.1 0.3
v -0.4 0.1 0.2
v -0.4 0.1 0
v -0.4 0.1 -0.2
v -0.4 0.1 -0.3
v -0.2 0.1 0.4
v -0.2 0.1 0.3
v -0.2 0.1 0.2
v -0.2 0.1 -0.2
v -0.2 0.1 -0.3
v -0.2 0.1 -0.4
v -0.2 0.2 0.4
v -0.2 0.2 0.3
v -0.2 0.2 -0.3
v -0.2 0.2 -0.4
v -0.1 0.2 0.4
v -0.1 0.2 0.3
v -0.1 0.2 -0.3
v -0.1 0.2 -0.4
v -0.1 0.3 0.4
v -0.1 0.3 0.3
v -0.1 0.3 -0.3
v -0.1 0.3 -0.4
v -5.96046e-08 0.2 0.3
v -5.96046e-08 0.2 0.2
v -5.96046e-08 0.2 -0.2
v -5.96046e-08 0.2 -0.3
v -5.96046e-08 0.3 0.3
v -5.96046e-08 0.3 0.2
v -5.96046e-08 0.3 -0.2
v -5.96046e-08 0.3 -0.3
v 0.1 0.2 0.2
v 0.1 0.2 -0.2
v 0.1 0.3 0.2
v 0.1 0.3 -0.2
v 0.4 0 0.4
v 0.4 0 0.3
v 0.4 0 -0.3
v 0.4 0 -0.4
v 0.4 0.1 0.4
v 0.4 0.1 0.3
v 0.4 0.1 -0.3
v 0.4 0.1 -0.4
v 0.5 0 0.3
v 0.5 0 0.2
v 0.5 0 -0.2
v 0.5 0 -0.3
v 0.5 0.1 0.3
v 0.5 0.1 0.2
v 0.5 0.1 -0.2
v 0.5 0.1 -0.3
v 0.6 0 0.2
v 0.6 0 -0.2
v 0.6 0.1 0.2
v 0.6 0.1 -0.2
v -0.4 0.1 0.4
v -0.4 0.2 0.4
v -0.2 0.1 0.4
v -0.2 0.2 0.4
v -0.2 0.3 0.4
v -0.1 0.2 0.4
v -0.1 0.3 0.4
v -5.96046e-08 0 0.4
v -5.96046e-08 0.1 0.4
v 0.1 0 0.4
v 0.1 0.1 0.4
v 0.4 0 0.4
v 0.4 0.1 0.4
v -0.5 0 0.3
v -0.5 0.1 0.3
v -0.4 0 0.3
v -0.4 0.1 0.3
v -0.1 0 0.3
v -0.1 0.1 0.3
v -0.1 0.2 0.3
v -0.1 0.3 0.3
v -5.96046e-08 0 0.3
v -5.96046e-08 0.1 0.3
v -5.96046e-08 0.2 0.3
v -5.96046e-08 0.3 0.3
v 0.4 0 0.3
v 0.4 0.1 0.3
v 0.5 0 0.3
v 0.5 0.1 0.3
v -0.6 0 0.2
v -0.6 0.1 0.2
v -0.5 0 0.2
v -0.5 0.1 0.2
v -0.2 0 0.2
v -0.2 0.1 0.2
v -0.1 0 0.2
v -0.1 0.1 0.2
v -5.96046e-08 0.2 0.2
v -5.96046e-08 0.3 0.2
v 0.1 0.2 0.2
v 0.1 0.3 0.2
v 0.5 0 0.2
v 0.5 0.1 0.2
v 0.6 0 0.2
v 0.6 0.1 0.2
v -0.6 0 -0.2
v -0.6 0.1 -0.2
v -0.5 0 -0.2
v -0.5 0.1 -0.2
v -0.2 0 -0.2
v -0.2 0.1 -0.2
v -0.1 0 -0.2
v -0.1 0.1 -0.2
v -5.96046e-08 0.2 -0.2
v -5.96046e-08 0.3 -0.2
v 0.1 0.2 -0.2
v 0.1 0.3 -0.2
v 0.5 0 -0.2
v 0.5 0.1 -0.2
v 0.6 0 -0.2
v 0.6 0.1 -0.2
v -0.5 0 -0.3
v -0.5 0.1 -0.3
v -0.4 0 -0.3
v -0.4 0.1 -0.3
v -0.1 0 -0.3
v -0.1 0.1 -0.3
v -0.1 0.2 -0.3
v -0.1 0.3 -0.3
v -5.96046e-08 0 -0.3
v -5.96046e-08 0.1 -0.3
v -5.96046e-08 0.2 -0.3
v -5.96046e-08 0.3 -0.3
v 0.4 0 -0.3
v 0.4 0.1 -0.3
v 0.5 0 -0.3
v 0.5 0.1 -0.3
v -0.4 0.1 -0.4
v -0.4 0.2 -0.4
v -0.2 0.1 -0.4
v -0.2 0.2 -0.4
v -0.2 0.3 -0.4
v -0.1 0.2 -0.4
v -0.1 0.3 -0.4
v -5.96046e-08 0 -0.4
v -5.96046e-08 0.1 -0.4
v 0.2 0 -0.4
v 0.2 0.1 -0.4
v 0.4 0 -0.4
v 0.4 0.1 -0.4
v -5.96046e-08 0 0.4
v 0.1 0 0.4
v 0.4 0 0.4
v -0.5 0 0.3
v -0.4 0 0.3
v -0.1 0 0.3
v -5.96046e-08 0 0.3
v 0.1 0 0.3
v 0.4 0 0.3
v 0.5 0 0.3
v -0.6 0 0.2
v -0.5 0 0.2
v -0.4 0 0.2
v -0.2 0 0.2
v -0.1 0 0.2
v -5.96046e-08 0 0.2
v 0.4 0 0.2
v 0.5 0 0.2
v 0.6 0 0.2
v 0.1 0 0
v 0.2 0 0
v -0.6 0 -0.2
v -0.5 0 -0.2
v -0.4 0 -0.2
v -0.2 0 -0.2
v -0.1 0 -0.2
v -5.96046e-08 0 -0.2
v 0.4 0 -0.2
v 0.5 0 -0.2
v 0.6 0 -0.2
v -0.5 0 -0.3
v -0.4 0 -0.3
v -0.1 0 -0.3
v -5.96046e-08 0 -0.3
v 0.2 0 -0.3
v 0.4 0 -0.3
v 0.5 0 -0.3
v -5.96046e-08 0 -0.4
v 0.2 0 -0.4
v 0.4 0 -0.4
v -0.4 0.1 0.4
v -0.2 0.1 0.4
v -0.4 0.1 0.3
v -0.2 0.1 0.3
v -0.4 0.1 0.2
v -0.2 0.1 0.2
v -0.4 0.1 0
v -0.3 0.1 0
v -0.4 0.1 -0.2
v -0.2 0.1 -0.2
v -0.4 0.1 -0.3
v -0.3 0.1 -0.3
v -0.2 0.1 -0.3
v -0.4 0.1 -0.4
v -0.2 0.1 -0.4
v -0.2 0.2 0.4
v -0.1 0.2 0.4
v -0.2 0.2 0.3
v -0.1 0.2 0.3
v -5.96046e-08 0.2 0.3
v -0.1 0.2 0.2
v -5.96046e-08 0.2 0.2
v 0.1 0.2 0.2
v -0.1 0.2 -0.2
v -5.96046e-08 0.2 -0.2
v 0.1 0.2 -0.2
v -0.2 0.2 -0.3
v -0.1 0.2 -0.3
v -5.96046e-08 0.2 -0.3
v -0.2 0.2 -0.4
v -0.1 0.2 -0.4
v -5.96046e-08 0.1 0.4
v 0.1 0.1 0.4
v 0.4 0.1 0.4
v -0.5 0.1 0.3
v -0.4 0.1 0.3
v -0.1 0.1 0.3
v -5.96046e-08 0.1 0.3
v 0.1 0.1 0.3
v 0.4 0.1 0.3
v 0.5 0.1 0.3
v -0.6 0.1 0.2
v -0.5 0.1 0.2
v -0.4 0.1 0.2
v -0.2 0.1 0.2
v -0.1 0.1 0.2
v -5.96046e-08 0.1 0.2
v 0.4 0.1 0.2
v 0.5 0.1 0.2
v 0.6 0.1 0.2
v -0.4 0.1 0
v 0.1 0.1 0
v 0.2 0.1 0
v -0.6 0.1 -0.2
v -0.5 0.1 -0.2
v -0.4 0.1 -0.2
v -0.2 0.1 -0.2
v -0.1 0.1 -0.2
v -5.96046e-08 0.1 -0.2
v 0.4 0.1 -0.2
v 0.5 0.1 -0.2
v 0.6 0.1 -0.2
v -0.5 0.1 -0.3
v -0.4 0.1 -0.3
v -0.1 0.1 -0.3
v -5.96046e-08 0.1 -0.3
v 0.2 0.1 -0.3
v 0.4 0.1 -0.3
v 0.5 0.1 -0.3
v -5.96046e-08 0.1 -0.4
v 0.2 0.1 -0.4
v 0.4 0.1 -0.4
v -0.4 0.2 0.4
v -0.2 0.2 0.4
v -0.4 0.2 0.3
v -0.2 0.2 0.3
v -0.4 0.2 0
v -0.3 0.2 0
v -0.4 0.2 -0.3
v -0.3 0.2 -0.3
v -0.2 0.2 -0.3
v -0.4 0.2 -0.4
v -0.2 0.2 -0.4
v -0.2 0.3 0.4
v -0.1 0.3 0.4
v -0.2 0.3 0.3
v -0.1 0.3 0.3
v -5.96046e-08 0.3 0.3
v -0.1 0.3 0.2
v -5.96046e-08 0.3 0.2
v 0.1 0.3 0.2
v -0.1 0.3 -0.2
v -5.96046e-08 0.3 -0.2
v 0.1 0.3 -0.2
v -0.2 0.3 -0.3
v -0.1 0.3 -0.3
v -5.96046e-08 0.3 -0.3
v -0.2 0.3 -0.4
v -0.1 0.3 -0.4

# faces
f 3/3/1 2/3/1 1/3/1
f 4/3/1 2/3/1 3/3/1
f 9/3/1 6/3/1 5/3/1
f 10/3/1 6/3/1 9/3/1
f 11/3/1 8/3/1 7/3/1
f 12/3/1 8/3/1 11/3/1
f 20/3/1 14/3/1 13/3/1
f 21/1/1 15/1/1 14/1/1
f 21/3/1 14/3/1 20/3/1
f 21/1/1 16/1/1 15/1/1
f 22/2/1 18/2/1 17/2/1
f 22/1/1 16/1/1 21/1/1
f 22/2/1 17/2/1 16/2/1
f 23/3/1 19/3/1 18/3/1
f 23/2/1 18/2/1 22/2/1
f 24/3/1 19/3/1 23/3/1
f 27/4/1 26/4/1 25/4/1
f 28/4/1 26/4/1 27/4/1
f 33/3/1 30/3/1 29/3/1
f 34/1/1 31/1/1 30/1/1
f 34/3/1 30/3/1 33/3/1
f 35/3/1 32/3/1 31/3/1
f 35/1/1 31/1/1 34/1/1
f 36/3/1 32/3/1 35/3/1
f 41/4/1 38/4/1 37/4/1
f 42/4/1 38/4/1 41/4/1
f 43/4/1 40/4/1 39/4/1
f 44/4/1 40/4/1 43/4/1
f 49/4/1 46/4/1 45/4/1
f 50/4/1 46/4/1 49/4/1
f 51/4/1 48/4/1 47/4/1
f 52/4/1 48/4/1 51/4/1
f 53/3/2 54/3/2 57/3/2
f 54/2/2 55/2/2 58/2/2
f 57/3/2 54/3/2 58/3/2
f 58/2/2 55/2/2 59/2/2
f 55/3/2 56/3/2 60/3/2
f 59/2/2 55/2/2 60/2/2
f 60/3/2 56/3/2 61/3/2
f 62/3/2 63/3/2 68/3/2
f 63/1/2 64/1/2 69/1/2
f 68/3/2 63/3/2 69/3/2
f 64/1/2 65/1/2 69/1/2
f 65/1/2 66/1/2 69/1/2
f 66/3/2 67/3/2 70/3/2
f 69/1/2 66/1/2 70/1/2
f 70/3/2 67/3/2 71/3/2
f 72/3/2 73/3/2 76/3/2
f 76/3/2 73/3/2 77/3/2
f 74/3/2 75/3/2 78/3/2
f 78/3/2 75/3/2 79/3/2
f 80/3/2 81/3/2 84/3/2
f 84/3/2 81/3/2 85/3/2
f 82/3/2 83/3/2 86/3/2
f 86/3/2 83/3/2 87/3/2
f 88/3/2 89/3/2 90/3/2
f 90/3/2 89/3/2 91/3/2
f 92/3/2 93/3/2 96/3/2
f 96/3/2 93/3/2 97/3/2
f 94/3/2 95/3/2 98/3/2
f 98/3/2 95/3/2 99/3/2
f 100/3/2 101/3/2 104/3/2
f 104/3/2 101/3/2 105/3/2
f 102/3/2 103/3/2 106/3/2
f 106/3/2 103/3/2 107/3/2
f 108/3/2 109/3/2 110/3/2
f 110/3/2 109/3/2 111/3/2
f 114/3/3 113/3/3 112/3/3
f 115/3/3 113/3/3 114/3/3
f 117/3/3 116/3/3 115/3/3
f 118/3/3 116/3/3 117/3/3
f 121/4/3 120/4/3 119/4/3
f 122/4/3 120/4/3 121/4/3
f 123/3/3 122/3/3 121/3/3
f 124/3/3 122/3/3 123/3/3
f 127/3/3 126/3/3 125/3/3
f 128/3/3 126/3/3 127/3/3
f 133/4/3 130/4/3 129/4/3
f 134/4/3 130/4/3 133/4/3
f 135/3/3 132/3/3 131/3/3
f 136/3/3 132/3/3 135/3/3
f 139/3/3 138/3/3 137/3/3
f 140/3/3 138/3/3 139/3/3
f 143/3/3 142/3/3 141/3/3
f 144/3/3 142/3/3 143/3/3
f 147/4/3 146/4/3 145/4/3
f 148/4/3 146/4/3 147/4/3
f 151/3/3 150/3/3 149/3/3
f 152/3/3 150/3/3 151/3/3
f 155/3/3 154/3/3 153/3/3
f 156/3/3 154/3/3 155/3/3
f 157/3/4 158/3/4 159/3/4
f 159/3/4 158/3/4 160/3/4
f 161/4/4 162/4/4 163/4/4
f 163/4/4 162/4/4 164/4/4
f 165/3/4 166/3/4 167/3/4
f 167/3/4 166/3/4 168/3/4
f 169/3/4 170/3/4 171/3/4
f 171/3/4 170/3/4 172/3/4
f 173/3/4 174/3/4 175/3/4
f 175/3/4 174/3/4 176/3/4
f 177/4/4 178/4/4 181/4/4
f 181/4/4 178/4/4 182/4/4
f 179/3/4 180/3/4 183/3/4
f 183/3/4 180/3/4 184/3/4
f 185/3/4 186/3/4 187/3/4
f 187/3/4 186/3/4 188/3/4
f 189/3/4 190/3/4 191/3/4
f 191/3/4 190/3/4 192/3/4
f 192/3/4 193/3/4 194/3/4
f 194/3/4 193/3/4 195/3/4
f 196/4/4 197/4/4 198/4/4
f 198/4/4 197/4/4 199/4/4
f 198/3/4 199/3/4 200/3/4
f 200/3/4 199/3/4 201/3/4
f 208/4/5 203/4/5 202/4/5
f 209/3/5 204/3/5 203/3/5
f 209/4/5 203/4/5 208/4/5
f 210/3/5 204/3/5 209/3/5
f 213/3/5 206/3/5 205/3/5
f 214/3/5 206/3/5 213/3/5
f 216/4/5 208/4/5 207/4/5
f 217/2/5 209/2/5 208/2/5
f 217/4/5 208/4/5 216/4/5
f 218/3/5 211/3/5 210/3/5
f 218/1/5 210/1/5 209/1/5
f 219/3/5 211/3/5 218/3/5
f 221/2/5 209/2/5 217/2/5
f 221/2/5 217/2/5 216/2/5
f 221/1/5 219/1/5 218/1/5
f 221/1/5 218/1/5 209/1/5
f 222/1/5 219/1/5 221/1/5
f 223/3/5 213/3/5 212/3/5
f 224/2/5 214/2/5 213/2/5
f 224/3/5 213/3/5 223/3/5
f 225/2/5 214/2/5 224/2/5
f 226/4/5 216/4/5 215/4/5
f 227/2/5 221/2/5 216/2/5
f 227/4/5 216/4/5 226/4/5
f 227/2/5 222/2/5 221/2/5
f 228/2/5 222/2/5 227/2/5
f 229/1/5 219/1/5 222/1/5
f 230/3/5 220/3/5 219/3/5
f 230/1/5 219/1/5 229/1/5
f 231/3/5 220/3/5 230/3/5
f 232/3/5 225/3/5 224/3/5
f 233/3/5 225/3/5 232/3/5
f 234/4/5 228/4/5 227/4/5
f 235/2/5 222/2/5 228/2/5
f 235/4/5 228/4/5 234/4/5
f 236/1/5 229/1/5 222/1/5
f 236/2/5 222/2/5 235/2/5
f 237/3/5 230/3/5 229/3/5
f 237/1/5 229/1/5 236/1/5
f 238/3/5 230/3/5 237/3/5
f 239/4/5 236/4/5 235/4/5
f 240/3/5 237/3/5 236/3/5
f 240/4/5 236/4/5 239/4/5
f 241/3/5 237/3/5 240/3/5
f 244/3/5 243/3/5 242/3/5
f 245/3/5 243/3/5 244/3/5
f 246/1/5 245/1/5 244/1/5
f 247/1/5 245/1/5 246/1/5
f 248/1/5 247/1/5 246/1/5
f 249/1/5 247/1/5 248/1/5
f 250/2/5 249/2/5 248/2/5
f 251/1/5 247/1/5 249/1/5
f 252/2/5 249/2/5 250/2/5
f 253/1/5 251/1/5 249/1/5
f 253/2/5 249/2/5 252/2/5
f 254/1/5 251/1/5 253/1/5
f 255/3/5 253/3/5 252/3/5
f 255/3/5 254/3/5 253/3/5
f 256/3/5 254/3/5 255/3/5
f 259/3/5 258/3/5 257/3/5
f 260/3/5 258/3/5 259/3/5
f 262/1/5 260/1/5 259/1/5
f 262/3/5 261/3/5 260/3/5
f 263/3/5 261/3/5 262/3/5
f 265/1/5 262/1/5 259/1/5
f 265/1/5 263/1/5 262/1/5
f 266/3/5 264/3/5 263/3/5
f 266/1/5 263/1/5 265/1/5
f 267/3/5 264/3/5 266/3/5
f 268/1/5 265/1/5 259/1/5
f 269/3/5 266/3/5 265/3/5
f 269/1/5 265/1/5 268/1/5
f 270/3/5 266/3/5 269/3/5
f 271/3/5 269/3/5 268/3/5
f 272/3/5 269/3/5 271/3/5
f 273/4/6 274/4/6 279/4/6
f 274/3/6 275/3/6 280/3/6
f 279/4/6 274/4/6 280/4/6
f 280/3/6 275/3/6 281/3/6
f 276/3/6 277/3/6 284/3/6
f 284/3/6 277/3/6 285/3/6
f 278/4/6 279/4/6 287/4/6
f 279/2/6 280/2/6 288/2/6
f 287/4/6 279/4/6 288/4/6
f 281/3/6 282/3/6 289/3/6
f 280/1/6 281/1/6 289/1/6
f 289/3/6 282/3/6 290/3/6
f 284/2/6 285/2/6 292/2/6
f 288/2/6 280/2/6 293/2/6
f 287/2/6 288/2/6 293/2/6
f 289/1/6 290/1/6 293/1/6
f 280/1/6 289/1/6 293/1/6
f 293/1/6 290/1/6 294/1/6
f 283/3/6 284/3/6 295/3/6
f 284/2/6 292/2/6 296/2/6
f 295/3/6 284/3/6 296/3/6
f 296/2/6 292/2/6 297/2/6
f 286/4/6 287/4/6 298/4/6
f 287/2/6 293/2/6 299/2/6
f 298/4/6 287/4/6 299/4/6
f 293/2/6 294/2/6 299/2/6
f 299/2/6 294/2/6 300/2/6
f 294/1/6 290/1/6 301/1/6
f 290/3/6 291/3/6 302/3/6
f 301/1/6 290/1/6 302/1/6
f 302/3/6 291/3/6 303/3/6
f 296/3/6 297/3/6 304/3/6
f 304/3/6 297/3/6 305/3/6
f 299/4/6 300/4/6 306/4/6
f 300/2/6 294/2/6 307/2/6
f 306/4/6 300/4/6 307/4/6
f 294/1/6 301/1/6 308/1/6
f 307/2/6 294/2/6 308/2/6
f 301/3/6 302/3/6 309/3/6
f 308/1/6 301/1/6 309/1/6
f 309/3/6 302/3/6 310/3/6
f 307/4/6 308/4/6 311/4/6
f 308/3/6 309/3/6 312/3/6
f 311/4/6 308/4/6 312/4/6
f 312/3/6 309/3/6 313/3/6
f 314/3/6 315/3/6 316/3/6
f 316/3/6 315/3/6 317/3/6
f 316/1/6 317/1/6 318/1/6
f 318/1/6 317/1/6 319/1/6
f 318/2/6 319/2/6 320/2/6
f 319/1/6 317/1/6 321/1/6
f 320/2/6 319/2/6 321/2/6
f 321/1/6 317/1/6 322/1/6
f 320/3/6 321/3/6 323/3/6
f 321/3/6 322/3/6 323/3/6
f 323/3/6 322/3/6 324/3/6
f 325/3/6 326/3/6 327/3/6
f 327/3/6 326/3/6 328/3/6
f 327/1/6 328/1/6 330/1/6
f 328/3/6 329/3/6 330/3/6
f 330/3/6 329/3/6 331/3/6
f 327/1/6 330/1/6 333/1/6
f 330/1/6 331/1/6 333/1/6
f 331/3/6 332/3/6 334/3/6
f 333/1/6 331/1/6 334/1/6
f 334/3/6 332/3/6 335/3/6
f 327/1/6 333/1/6 336/1/6
f 333/3/6 334/3/6 337/3/6
f 336/1/6 333/1/6 337/1/6
f 337/3/6 334/3/6 338/3/6
f 336/3/6 337/3/6 339/3/6
f 339/3/6 337/3/6 340/3/6
